<svg width="39" height="49" viewBox="0 0 39 49" fill="none" xmlns="http://www.w3.org/2000/svg">
<path d="M16.3186 42.0265H5.02377C3.84579 42.0265 2.91033 41.0564 2.91033 39.913V4.98913C2.91033 3.81114 3.88043 2.87568 5.02377 2.87568H21.4117V8.55774C21.4117 11.3295 23.6637 13.5469 26.4008 13.5469H32.0829V25.9157C32.0829 26.7126 32.7411 27.3363 33.5034 27.3363C34.3003 27.3363 34.9239 26.678 34.9239 25.9157V12.1264C34.9239 12.1264 34.9239 12.1264 34.9239 12.0917C34.9239 12.0571 34.9239 12.0224 34.9239 11.9878V11.9531C34.9239 11.9185 34.9239 11.8838 34.8892 11.8145V11.7799C34.8892 11.7452 34.8892 11.7106 34.8546 11.7106C34.8546 11.6759 34.8546 11.6759 34.8546 11.6759C34.8546 11.6413 34.8546 11.6413 34.8199 11.6067C34.8199 11.6067 34.82 11.572 34.7853 11.572C34.7853 11.5374 34.7507 11.5027 34.7507 11.4681C34.7507 11.4681 34.7507 11.4334 34.716 11.4334C34.716 11.3988 34.6814 11.3988 34.6814 11.3641C34.6814 11.3641 34.6814 11.3295 34.6467 11.3295C34.6467 11.2948 34.6121 11.2948 34.6121 11.2602C34.6121 11.2602 34.6121 11.2255 34.5774 11.2255C34.5428 11.1909 34.5428 11.1562 34.5081 11.1562L23.8023 0.450408C23.7677 0.415762 23.733 0.381113 23.6984 0.381113C23.6984 0.381113 23.6637 0.381114 23.6637 0.346467C23.6291 0.31182 23.6291 0.311822 23.5944 0.277175C23.5944 0.277175 23.5598 0.277175 23.5598 0.242529C23.5251 0.242529 23.5251 0.20788 23.4905 0.20788C23.4905 0.20788 23.4558 0.20788 23.4558 0.173234C23.4212 0.138587 23.3865 0.138587 23.3519 0.138587C23.3519 0.138587 23.3172 0.138588 23.3172 0.103941C23.2826 0.103941 23.2826 0.069295 23.2479 0.069295H23.2133C23.1787 0.069295 23.144 0.0692929 23.144 0.0346462H23.1094C23.0747 0.0346462 23.0401 0.0346467 22.9708 0H22.9361C22.9015 0 22.8668 0 22.8322 0C22.8322 0 22.8322 0 22.7975 0H4.98914C2.2174 0 0 2.25204 0 4.98913V39.913C0 42.6848 2.25204 44.9021 4.98914 44.9021H16.284C17.0808 44.9021 17.7045 44.2439 17.7045 43.4816C17.7391 42.6848 17.0808 42.0265 16.3186 42.0265ZM26.4008 10.6712C25.2228 10.6712 24.2873 9.70108 24.2873 8.55774V4.88519L30.0734 10.6712H26.4008Z" fill="#ED7070"/>
<path d="M27.8565 18.536C27.8565 17.7391 27.1982 17.1155 26.436 17.1155H8.62755C7.83067 17.1155 7.20703 17.7738 7.20703 18.536C7.20703 19.3329 7.86532 19.9565 8.62755 19.9565H26.4013C27.1982 19.9565 27.8565 19.3329 27.8565 18.536Z" fill="#ED7070"/>
<path d="M24.4259 25.6732C24.4259 24.8763 23.7677 24.2527 23.0054 24.2527H8.59239C7.79552 24.2527 7.17188 24.911 7.17188 25.6732C7.17188 26.4701 7.83016 27.0937 8.59239 27.0937H23.0054C23.7677 27.0937 24.4259 26.4701 24.4259 25.6732Z" fill="#ED7070"/>
<path d="M8.59239 31.3552C7.79552 31.3552 7.17188 32.0135 7.17188 32.7757C7.17188 33.5726 7.83016 34.1963 8.59239 34.1963H16.2493C17.0462 34.1963 17.6698 33.538 17.6698 32.7757C17.6698 31.9789 17.0115 31.3552 16.2493 31.3552H8.59239Z" fill="#ED7070"/>
<path d="M28.2371 28.8262C22.7976 28.8262 18.3975 33.2263 18.3975 38.6658C18.3975 44.1054 22.7976 48.5055 28.2371 48.5055C33.6767 48.5055 38.0768 44.1054 38.0768 38.6658C38.0768 33.2263 33.642 28.8262 28.2371 28.8262ZM28.2371 45.6298C24.3913 45.6298 21.2731 42.5116 21.2731 38.6658C21.2731 34.8201 24.3913 31.7019 28.2371 31.7019C32.0829 31.7019 35.2011 34.8201 35.2011 38.6658C35.2011 42.5116 32.0829 45.6298 28.2371 45.6298Z" fill="#ED7070"/>
<path d="M33.1564 36.379C32.6714 35.7554 31.7705 35.6514 31.1469 36.1711L27.1279 39.3933L26.0192 38.1806C25.4648 37.5916 24.564 37.557 23.975 38.1113C23.386 38.6657 23.3514 39.5665 23.9057 40.1555L25.9499 42.3382C26.2271 42.6501 26.6082 42.7887 26.9893 42.7887C27.3011 42.7887 27.6129 42.6847 27.8901 42.4768L32.9485 38.4232C33.5722 37.9035 33.6415 36.968 33.1564 36.379Z" fill="#ED7070"/>
</svg>
