<svg width="43" height="44" viewBox="0 0 43 44" fill="none" xmlns="http://www.w3.org/2000/svg">
<path fill-rule="evenodd" clip-rule="evenodd" d="M11.6462 29.3333H28.667C32.0454 29.3333 33.7346 29.3333 34.7841 28.2594C35.8337 27.1854 35.8337 25.457 35.8337 22V12.8333C35.8337 9.37637 35.8337 7.64788 34.7841 6.57394C33.7346 5.5 32.0454 5.5 28.667 5.5H14.3337C10.9553 5.5 9.26606 5.5 8.21653 6.57394C7.16699 7.64788 7.16699 9.37637 7.16699 12.8333V33.9167C7.16699 31.3854 9.17238 29.3333 11.6462 29.3333ZM16.1253 12.6667C15.0208 12.6667 14.1253 13.5621 14.1253 14.6667C14.1253 15.7712 15.0208 16.6667 16.1253 16.6667L26.8753 16.6667C27.9799 16.6667 28.8753 15.7712 28.8753 14.6667C28.8753 13.5621 27.9799 12.6667 26.8753 12.6667L16.1253 12.6667Z" fill="#D1DAE2"/>
<path d="M8.21653 6.57394L7.50134 5.87501L7.50134 5.87501L8.21653 6.57394ZM16.1253 12.6667L16.1253 11.6667H16.1253V12.6667ZM16.1253 16.6667L16.1253 15.6667H16.1253V16.6667ZM26.8753 16.6667L26.8753 17.6667H26.8753V16.6667ZM26.8753 12.6667L26.8753 13.6667H26.8753V12.6667ZM28.667 28.3333H11.6462V30.3333H28.667V28.3333ZM34.0689 27.5605C33.7599 27.8766 33.3232 28.09 32.4626 28.2084C31.5708 28.3311 30.3851 28.3333 28.667 28.3333V30.3333C30.3273 30.3333 31.6754 30.3356 32.7352 30.1898C33.8261 30.0397 34.7588 29.7161 35.4993 28.9583L34.0689 27.5605ZM34.8337 22C34.8337 23.7561 34.8316 24.9749 34.711 25.8931C34.5938 26.7848 34.3811 27.2411 34.0689 27.5605L35.4993 28.9583C36.2367 28.2038 36.5487 27.2588 36.6939 26.1536C36.8357 25.0748 36.8337 23.7008 36.8337 22H34.8337ZM34.8337 12.8333V22H36.8337V12.8333H34.8337ZM34.0689 7.27287C34.3811 7.59225 34.5938 8.04855 34.711 8.94027C34.8316 9.85845 34.8337 11.0772 34.8337 12.8333H36.8337C36.8337 11.1325 36.8357 9.75852 36.6939 8.67973C36.5487 7.57449 36.2367 6.62957 35.4993 5.87501L34.0689 7.27287ZM28.667 6.5C30.3851 6.5 31.5708 6.50222 32.4626 6.62491C33.3232 6.74331 33.7599 6.9567 34.0689 7.27287L35.4993 5.87501C34.7588 5.11724 33.8261 4.79366 32.7352 4.64357C31.6754 4.49778 30.3273 4.5 28.667 4.5V6.5ZM14.3337 6.5H28.667V4.5H14.3337V6.5ZM8.93171 7.27287C9.2407 6.9567 9.67741 6.74331 10.5381 6.62491C11.4299 6.50222 12.6156 6.5 14.3337 6.5V4.5C12.6734 4.5 11.3252 4.49778 10.2655 4.64357C9.17454 4.79366 8.24188 5.11724 7.50134 5.87501L8.93171 7.27287ZM8.16699 12.8333C8.16699 11.0772 8.16902 9.85845 8.28966 8.94027C8.40683 8.04855 8.61959 7.59225 8.93171 7.27287L7.50134 5.87501C6.76392 6.62957 6.45192 7.57449 6.30671 8.67973C6.16496 9.75852 6.16699 11.1325 6.16699 12.8333H8.16699ZM8.16699 33.9167V12.8333H6.16699V33.9167H8.16699ZM11.6462 28.3333C8.59855 28.3333 6.16699 30.8549 6.16699 33.9167H8.16699C8.16699 31.9159 9.74622 30.3333 11.6462 30.3333V28.3333ZM15.1253 14.6667C15.1253 14.1144 15.573 13.6667 16.1253 13.6667V11.6667C14.4685 11.6667 13.1253 13.0098 13.1253 14.6667H15.1253ZM16.1253 15.6667C15.573 15.6667 15.1253 15.219 15.1253 14.6667H13.1253C13.1253 16.3235 14.4685 17.6667 16.1253 17.6667V15.6667ZM26.8753 15.6667L16.1253 15.6667L16.1253 17.6667L26.8753 17.6667L26.8753 15.6667ZM27.8753 14.6667C27.8753 15.219 27.4276 15.6667 26.8753 15.6667V17.6667C28.5322 17.6667 29.8753 16.3235 29.8753 14.6667H27.8753ZM26.8753 13.6667C27.4276 13.6667 27.8753 14.1144 27.8753 14.6667H29.8753C29.8753 13.0098 28.5322 11.6667 26.8753 11.6667V13.6667ZM16.1253 13.6667L26.8753 13.6667L26.8753 11.6667L16.1253 11.6667L16.1253 13.6667ZM19.7087 37.5H11.6462V39.5H19.7087V37.5ZM6.16699 33.9167C6.16699 36.9785 8.59855 39.5 11.6462 39.5V37.5C9.74622 37.5 8.16699 35.9175 8.16699 33.9167H6.16699Z" fill="#D1DAE2"/>
<path d="M35.8337 38.5H17.917" stroke="#D1DAE2" stroke-width="2" stroke-linecap="round"/>
</svg>
