<svg width="227" height="101" viewBox="0 0 227 101" fill="none" xmlns="http://www.w3.org/2000/svg">
<path d="M214.372 39.5338C210.678 38.452 206.941 37.0672 203.073 36.4614C199.379 35.8989 195.511 36.7643 193.947 40.5291C193.252 42.1735 192.861 44.2506 193.382 45.9815C193.947 47.8423 194.816 49.6165 195.511 51.434C193.904 51.3474 192.687 50.179 191.644 49.0972C190.21 47.6692 189.123 46.1979 188.037 44.467C185.951 41.2215 183.604 38.1491 181.431 34.9468C179.432 31.961 177.216 29.1482 174.652 26.6384C173.305 25.2969 171.914 23.9554 170.567 22.614C170.263 22.3111 169.133 21.5321 169.09 21.2292C169.003 20.6234 170.133 19.9743 170.48 19.7147C176.217 15.3441 182.909 12.4448 189.514 9.67528C192.817 8.29054 196.25 7.2087 199.509 5.82396C200.552 5.39123 208.375 3.14102 207.506 6.17015C207.245 6.99234 206.245 7.98762 205.724 8.72327C205.246 9.41564 204.724 10.0647 204.203 10.7571C203.16 12.0553 202.247 13.3968 201.248 14.7382C200.205 16.123 199.292 17.6808 198.64 19.3252C198.162 20.4936 197.163 22.7871 197.684 24.042C198.38 23.3063 198.727 22.138 199.205 21.2725C199.727 20.3638 200.248 19.455 200.857 18.5896C203.16 15.171 205.941 12.0553 207.94 8.42035C208.809 6.81925 209.983 4.61231 209.722 2.75156C209.374 0.544627 207.592 -0.147744 205.55 0.0253488C201.422 0.371535 196.989 2.05919 193.208 3.74685C189.08 5.6076 184.865 7.33853 180.78 9.32909C177.086 11.1466 173.479 13.0506 170.133 15.4739C168.786 16.4692 167.221 17.7674 167.091 19.5849C166.917 21.3591 166.787 23.6093 167.916 25.0805C170.48 28.326 173.175 31.4417 175.695 34.7305C178.042 37.8894 180.736 41.3946 181.823 45.2026C182.17 46.371 182.17 46.7172 181.084 47.2797C180.128 47.7557 179.215 48.1885 178.216 48.5779C177.52 48.8376 177.607 48.9241 177.173 48.4481C176.868 48.1019 176.608 47.7125 176.304 47.3663C175.739 46.6306 175.087 46.0248 174.348 45.5055C172.697 44.3371 170.871 43.6015 169.09 44.8564C167.525 45.9382 166.743 47.7125 166.352 49.4867C165.961 51.3474 165.483 53.5543 167.482 54.6362C169.307 55.6315 171.523 55.0689 173.435 54.5929C174.261 54.3765 175.782 53.338 175.956 54.6362C176.086 55.4584 175.348 56.0209 174.783 56.5835C173.305 58.0548 171.654 59.3529 170.002 60.6511C166.873 63.0744 163.614 65.5843 159.66 66.4498C157.791 66.8392 155.879 66.8392 154.314 65.6276C152.663 64.3726 152.315 62.7283 152.359 60.7377C152.402 59.6126 152.62 58.5308 152.967 57.4489C153.098 57.1027 153.793 55.3285 153.271 55.1122C152.272 54.6794 151.272 59.6126 151.186 60.2184C150.664 63.7235 151.012 68.6567 154.575 70.5174C157.965 72.2916 162.397 70.3444 165.309 68.3971C167.047 67.2287 168.612 65.8439 170.263 64.5457C171.741 63.3774 173.262 62.0792 174.522 60.6511C175.999 59.05 176.825 57.3624 177.347 55.242C177.52 54.5929 177.607 53.5543 178.085 53.0351C178.476 52.6023 179.346 52.386 179.867 52.1696C181.736 51.3041 182.692 50.4387 183.17 48.4048C183.387 47.4095 183.561 46.371 183.648 45.3757C183.691 44.9862 183.43 42.8659 183.648 42.7793C185.951 46.5008 188.298 50.2656 191.035 53.7274C191.948 54.8525 193.599 55.6747 194.99 56.0209C195.425 56.1075 196.163 56.0642 196.554 56.2805C196.946 56.4969 196.815 57.0162 196.902 57.4922C197.032 58.3577 197.467 58.4875 197.728 57.622C197.902 57.1027 197.902 56.4536 198.293 56.2373C198.597 56.0642 199.249 56.0642 199.596 56.0209C200.596 55.8478 201.552 55.6315 202.465 55.242C204.377 54.5063 206.289 53.6409 208.114 52.7322C211.59 51.0445 214.98 49.0972 218.587 47.6259C219.543 47.2364 220.586 46.8903 221.586 46.6306C222.368 46.4143 223.498 46.5008 224.193 46.1546C224.801 45.8517 224.888 44.9862 225.106 44.3804C225.366 43.5582 225.714 42.736 225.931 41.8706C221.933 41.3946 218.152 40.6156 214.372 39.5338ZM169.872 50.3954C169.177 50.4387 168.09 50.5685 168.568 49.6165C169.481 47.7557 172.045 48.8808 173.131 49.8761C172.088 50.0925 171.002 50.3088 169.872 50.3954ZM204.464 50.179C203.334 50.6118 202.117 51.0445 200.944 51.3474C200.335 51.4772 199.77 51.5638 199.162 51.607C198.51 51.6503 198.293 51.7801 198.075 51.434C198.075 51.2176 198.032 51.0878 198.032 51.0445C197.988 50.6118 197.25 47.9288 197.25 47.9288C196.902 46.847 196.424 45.8517 196.033 44.8131C195.685 43.991 194.816 42.8659 195.598 42.1302C196.294 41.4378 197.467 41.1349 198.38 40.9186C200.726 40.356 203.029 41.0484 205.289 41.6542C207.549 42.26 209.765 43.0389 212.025 43.5582C213.546 43.9044 215.024 44.2073 216.458 44.6833C212.46 46.5441 208.549 48.5779 204.464 50.179Z" fill="#CF1F25"/>
<path d="M59.97 52.6889C61.013 52.0398 61.969 51.5205 62.8382 50.655C63.7073 49.8328 64.533 48.7943 65.489 48.1452C66.6624 47.3662 66.6624 47.8423 66.9666 48.9241C67.6184 51.131 69.5305 52.4292 71.7903 52.1696C74.2673 51.9099 76.1359 50.4819 78.135 49.1837C78.8737 51.0877 79.569 53.1649 81.2638 54.4631C82.7414 55.5882 84.8273 55.2853 86.4787 54.8525C88.13 54.3765 90.129 53.5543 91.3024 52.2561C92.4322 51.0012 93.0406 49.1405 93.3883 47.5393C94.3009 43.7313 93.4752 39.7502 92.9103 35.9854C92.3019 31.9177 91.6066 27.8933 90.9982 23.8689C90.6505 21.835 90.3463 19.7579 90.0421 17.7241C89.7379 15.8633 89.2599 14.0026 89.0426 12.1418C89.5641 12.488 90.4767 14.219 91.2589 13.8295C91.9977 13.3968 90.9982 11.5793 90.8243 11.06C89.9987 8.85308 89.1295 6.64614 88.2604 4.48248C88.0866 4.00647 87.5216 1.79954 86.7394 1.88608C86.3048 1.92936 85.6964 4.48248 85.5661 4.87194C85.4357 5.30467 85.175 5.7374 85.3053 6.21341C85.4357 6.81923 85.7399 7.20869 85.7834 7.85779C85.9137 9.06944 86.0875 10.2811 86.2614 11.4927C87.652 20.3205 89.2164 29.1049 90.607 37.9327C90.9547 40.0963 91.3024 42.3033 91.5631 44.5102C91.6935 45.4622 91.9108 46.6739 91.7804 47.6692C91.6935 48.4048 91.0416 48.8375 90.3898 49.1837C88.5646 50.0925 86.4787 50.8281 84.4362 50.8714C83.4367 50.9147 82.5676 50.655 81.8288 50.0059C81.4377 49.703 80.1774 48.5346 80.2643 47.9721C80.3078 47.7557 81.09 47.323 81.2638 47.1932C81.568 46.8902 81.8288 46.5873 82.0461 46.2411C82.5241 45.5055 82.9587 44.5535 83.2629 43.7313C83.9147 42.0004 84.0885 39.7069 83.5671 37.9327C83.1325 36.5479 82.133 33.8217 80.6989 33.2159C78.9172 32.4803 77.2658 34.6006 76.7443 35.9854C76.0056 37.8029 75.7448 40.0098 76.049 41.9571C76.1794 42.9524 76.5271 43.9909 76.7878 44.9862C76.9616 45.592 77.2224 45.8517 76.8313 46.3277C76.5705 46.5873 76.049 46.7604 75.7014 46.8902C74.0935 47.6259 72.0076 48.3183 70.2693 47.6259C68.4006 46.847 68.0095 45.0295 67.8792 43.2553C65.6629 43.6015 64.3592 45.895 62.6643 47.1932C61.8387 47.8423 60.8826 48.4048 59.97 48.7943C59.492 49.0106 58.7967 49.3568 58.449 49.0972C58.1448 48.8375 57.9276 48.1019 57.6668 47.7124C56.5369 46.1546 54.929 44.2506 52.7996 44.2506C50.6268 44.2506 49.1493 46.371 48.4105 48.1884C47.7152 49.9194 47.1503 52.2561 48.6278 53.7707C50.0184 55.242 52.4085 54.8958 54.1468 54.5929C54.7552 54.5063 55.3201 54.3765 55.9285 54.29C56.5369 54.2034 56.8846 53.9005 57.1888 54.3765C57.5364 54.9391 57.1888 55.3718 56.7977 55.8045C55.3636 57.2758 53.7557 58.6173 52.0174 59.7424C47.3241 62.9013 34.4609 72.1185 31.4624 62.4686C30.854 60.5646 31.5058 58.4875 32.0273 56.6267C32.288 55.7613 32.6357 54.6362 33.2441 53.9438C33.7656 53.338 34.5913 53.035 35.1996 52.559C37.0248 51.2608 38.85 49.8761 40.4579 48.3615C41.1967 47.6692 41.892 46.8902 42.5438 46.1113C43.2392 45.3324 43.4564 44.8564 43.6737 43.8178C44.0648 41.7407 43.9779 39.6636 43.7172 37.5432C43.5868 36.5479 43.1957 35.5094 43.1522 34.4708C43.1088 33.7785 43.1522 33.9515 43.8041 33.6919C44.1083 33.5621 44.4559 33.4323 44.7167 33.2159C46.2811 32.2639 46.9764 30.5762 48.1498 29.2348C48.4974 28.8453 49.6708 27.8067 50.1922 28.4558C50.5399 28.8886 50.1488 30.0137 50.3661 30.5762C51.6263 29.6242 52.2347 26.5086 51.6698 25.0805C50.7572 22.8303 48.8016 24.0853 47.7152 25.47C46.4984 27.0278 45.412 28.9319 43.413 29.4944C42.5004 29.754 41.2401 29.9704 40.4579 29.3213C39.7626 28.7588 39.1977 27.8067 38.5458 27.1577C38.1113 28.2828 37.9374 29.5809 37.807 30.7926C37.6332 31.961 38.5893 32.6966 39.2846 33.5621C40.849 35.5094 41.8051 37.6298 42.2396 40.0963C42.37 40.832 42.6742 41.8706 42.2831 42.5629C41.8485 43.2986 40.8925 43.9477 40.2406 44.4669C38.4589 45.895 36.5903 47.3662 34.6782 48.5779C31.0278 50.9147 27.2905 52.9485 23.0752 54.0736C19.0337 55.1554 13.8624 56.6267 9.82088 54.8958C7.9957 54.1169 6.51816 53.2947 5.171 51.8234C3.91076 50.4386 3.08508 48.5779 2.5636 46.8037C1.9552 44.7266 1.82483 42.5196 1.91174 40.3993C1.9552 39.1876 2.17248 38.149 2.47668 36.9807C2.65051 36.3316 2.52014 34.6439 1.78137 35.8556C0.738411 37.5 0.694955 40.0963 0.434214 41.9571C0.130017 44.164 0.303844 46.5441 0.651498 48.7077C1.30335 52.6889 3.34582 56.2373 6.82236 58.4009C10.6466 60.781 15.4703 60.305 19.6856 59.4395C23.814 58.574 27.3774 56.9729 31.0712 55.0689C31.1147 55.718 30.7236 56.4969 30.5498 57.1027C30.3325 57.8384 30.1587 58.574 30.0283 59.3097C29.7241 60.9108 29.6372 62.5119 29.7675 64.113C30.0283 66.6661 31.2885 69.5654 33.809 70.6905C35.9819 71.6858 38.85 71.0367 40.9359 70.2145C43.3695 69.2192 45.7162 67.921 47.9325 66.493C50.1053 65.1083 52.2347 63.5072 54.1033 61.733C55.9285 60.0453 57.6668 58.2711 58.3621 55.8045C58.6663 54.5063 58.8836 53.3812 59.97 52.6889ZM79.6559 37.5865C80.5251 38.0192 81.9157 40.6589 81.9592 41.6542C82.0026 42.7793 79.6994 44.0775 78.7868 44.64C78.4826 43.7313 78.1784 42.8658 77.9611 41.9138C77.7438 41.1349 77.3093 40.2262 77.2658 39.4472C77.2224 38.4087 78.613 37.0672 79.6559 37.5865ZM49.9749 49.7896C51.0179 47.8423 53.1038 49.0106 54.3641 50.0492C52.8866 50.3521 51.409 50.3521 49.9749 49.7896Z" fill="#CF1F25"/>
<path d="M95.3001 65.6708C99.2112 63.3773 103.079 61.1271 106.773 58.4442C108.337 57.3191 109.771 56.1507 110.945 54.5929C111.64 53.6409 112.205 52.6023 112.77 51.5637C113.161 50.8281 113.508 49.8761 114.247 49.3568C114.465 49.8761 114.421 50.1357 114.856 50.5252C115.247 50.8714 115.812 51.131 116.29 51.3474C117.42 51.8234 118.593 52.1696 119.766 52.4725C120.027 52.559 120.331 52.559 120.592 52.6889C121.2 52.9485 120.896 52.7321 121.113 53.2081C121.374 53.7707 121.418 54.5496 121.505 55.1554C121.722 56.3671 122.156 57.5787 122.678 58.7038C123.46 60.3915 124.547 62.0359 126.154 63.0312C128.371 64.4159 129.674 63.1177 130.587 61.0406C132.195 57.4056 133.238 52.1696 137.236 50.3521C138.192 49.9194 138.931 49.7463 139.583 50.655C140.191 51.5205 140.669 52.4292 141.277 53.2514C142.407 54.8092 143.928 56.5834 145.927 56.8864C147.97 57.1893 150.099 56.8431 151.62 55.3718C152.272 54.7227 152.793 53.9005 153.228 53.0783C153.576 52.4292 153.749 51.3041 154.401 50.8714C154.662 51.5205 154.706 51.8667 155.357 52.2994C156.009 52.7321 156.705 52.9918 157.443 53.2514C159.138 53.8572 160.876 54.29 162.658 54.4198C163.745 54.5063 163.918 54.4631 164.44 53.4245C165.135 51.9532 165.396 50.7848 165.135 49.1404C164.874 47.6259 164.223 46.3277 163.527 44.9862C163.006 43.9909 162.224 42.736 161.05 42.6062C159.573 42.4764 158.008 43.4717 157.096 44.5102C156.705 44.9429 156.444 45.5055 156.009 45.9382C155.618 46.371 155.097 46.5873 154.706 47.0201C153.793 48.0586 153.532 49.4866 152.62 50.5252C151.75 51.4772 150.577 52.1263 149.317 52.3859C148.013 52.6456 146.275 52.6456 145.102 51.9532C143.972 51.2608 143.016 50.0925 142.233 49.0539C141.712 48.3615 141.234 47.6259 140.756 46.8902C140.452 46.4142 140.191 45.7651 139.583 45.5488C138.583 45.1593 137.236 45.9815 136.497 46.5441C134.107 48.275 132.76 51.0445 131.717 53.6841C130.978 55.5882 129.805 59.7857 127.024 59.3529C124.242 58.9202 123.373 55.3718 122.591 53.1649C123.026 53.0783 123.59 53.1649 123.938 52.8619C124.286 52.559 124.416 51.9099 124.59 51.5205C125.111 50.3088 125.372 49.227 125.155 47.8855C124.851 45.8517 123.764 42.9956 122.113 41.6975C120.462 40.3993 118.071 41.8705 116.898 43.212C116.55 43.6015 116.29 44.0775 115.942 44.4669C115.594 44.8131 115.16 44.9862 114.812 45.3324C114.03 46.1113 113.508 47.3662 112.944 48.3183C111.857 50.179 110.684 51.6936 108.989 52.9918C107.207 54.3765 105.339 55.6747 103.427 56.8431C99.6023 59.2664 95.5608 61.4733 91.4759 63.4206C87.2606 65.4112 83.1322 67.5748 78.8734 69.4356C76.7441 70.3443 74.6147 71.2098 72.4853 72.0753C71.6162 72.4214 69.9648 72.8109 69.2695 73.46C68.4438 74.2389 69.5302 74.1956 70.2255 74.1091C74.6581 73.3735 79.0473 72.2051 83.3929 70.9934C85.4789 70.4309 87.6083 69.9116 89.5638 68.9596C91.4325 67.9643 93.3446 66.7959 95.3001 65.6708ZM161.615 49.5732C160.963 49.6165 160.138 49.2703 159.529 49.0539C158.834 48.8375 158.008 48.6212 157.356 48.1884C158.53 46.2411 161.398 47.6259 161.615 49.5732ZM119.679 45.8517C120.722 46.1546 121.244 47.0633 121.505 48.0586C120.027 47.7557 118.593 47.2797 117.202 46.7171C117.724 45.8517 118.723 45.592 119.679 45.8517Z" fill="#CF1F25"/>
<path d="M122.461 9.97822C122.592 11.5793 122.852 13.1372 123.07 14.695C123.591 18.33 124.156 21.9649 124.765 25.5999C125.981 32.9563 127.415 40.3993 127.893 47.8423C127.98 49.6165 128.067 51.3907 128.067 53.1649C128.067 53.6409 127.763 54.766 128.024 55.1987C128.328 55.718 128.676 55.5017 128.893 55.0689C130.501 52.2129 130.197 48.275 130.153 45.1161C130.066 37.7596 128.502 30.4032 127.242 23.2198C130.762 20.9696 134.499 18.8925 137.541 15.9932C138.193 15.3874 138.714 14.2623 139.453 13.743C140.018 13.3535 140.366 13.6132 141.017 13.8295C141.973 14.0892 142.756 14.4354 143.408 13.4401C143.799 12.8343 144.146 11.839 144.146 11.0601C144.19 9.3724 142.278 7.90111 141.235 6.73273C140.409 5.78072 138.801 4.13634 137.932 5.91054C137.497 6.776 137.671 7.72801 137.324 8.59348C136.976 9.41567 136.585 10.0215 136.498 10.9735C136.368 12.6179 137.497 12.5313 138.714 13.1804C136.889 14.8681 134.977 16.4692 132.934 17.9838C131.891 18.7627 130.805 19.5416 129.762 20.3205C128.893 20.9263 128.067 21.7485 127.068 22.1813C126.503 18.503 125.46 14.695 125.329 10.9302C125.894 11.3197 126.503 12.8775 127.198 12.9208C128.067 12.9208 127.633 11.7957 127.415 11.2764C126.807 9.63204 125.981 8.0742 125.373 6.38654C125.025 5.43453 124.678 4.56907 124.287 3.66033C124.069 3.18432 123.939 2.01595 123.461 1.75631C122.809 1.36685 122.766 2.23231 122.592 2.70832C122.288 3.61706 121.896 4.52579 121.723 5.47781C121.549 6.34327 121.896 6.776 122.157 7.55492C122.374 8.37711 122.374 9.1993 122.461 9.97822ZM141.148 9.41567C141.8 9.8484 142.669 10.8004 142.886 11.6226C142.06 11.9255 141.322 11.4495 140.626 11.1033C140.8 10.5408 140.974 9.97822 141.148 9.41567ZM138.193 9.11276C138.845 8.59348 139.366 8.37711 139.844 9.1993C140.192 9.80513 140.322 10.3677 140.061 11.0168C139.018 10.9302 136.628 10.3677 138.193 9.11276Z" fill="#CF1F25"/>
<path d="M97.3427 7.55492C97.5165 7.98765 97.5165 8.5502 97.5599 9.02621C97.6469 10.0648 97.7772 11.1033 97.9511 12.1419C98.9071 17.1183 99.4286 22.1813 100.167 27.201C100.863 32.1341 101.906 37.1105 102.253 42.1302C102.427 44.5103 102.688 46.8903 102.688 49.3136C102.688 50.6118 102.688 51.8667 102.514 53.1216C102.427 53.9438 101.819 55.3286 102.427 56.1075C103.6 54.9391 104.252 52.862 104.643 51.3042C105.035 49.703 105.078 47.8856 105.121 46.2412C105.121 42.3899 104.6 38.5818 104.035 34.7738C102.905 27.0711 101.515 19.4118 100.558 11.7091C101.036 11.5361 101.732 14.2623 102.601 13.8295C103.47 13.3968 102.471 11.3197 102.253 10.7571C101.341 8.11747 100.211 5.60762 99.0809 3.09777C98.8636 2.62177 98.7767 1.88612 98.1249 2.23231C97.7772 2.4054 97.7338 2.75159 97.6469 3.09777C97.3861 4.00651 96.6039 5.52107 96.7343 6.47308C96.7777 6.81927 97.1688 7.07891 97.3427 7.55492Z" fill="#CF1F25"/>
<path d="M53.3216 17.1616C54.3645 16.9019 55.4075 16.6856 56.4504 16.5125C58.2322 16.2095 59.8835 15.6037 61.3176 14.4353C62.7082 13.267 63.925 11.4928 64.6638 9.84838C64.8811 9.37237 65.3156 8.204 64.7942 7.77126C64.3596 7.42508 62.6213 7.68472 62.0998 7.68472C60.0139 7.68472 57.8845 7.68472 55.7986 7.59817C53.7996 7.5549 53.4954 8.89637 52.7566 10.4975C52.5828 10.8437 51.6267 12.4448 52.3221 12.4015C52.4959 12.4015 52.8001 12.012 53.0608 11.9255C53.4954 11.7957 54.0169 11.8822 54.4514 11.8822C56.5374 11.8822 58.6233 11.8822 60.7527 11.8822C61.0569 12.315 55.7986 14.4786 55.2337 14.7383C54.2342 15.2143 53.1912 15.6037 52.1917 16.0797C51.8006 16.2528 49.8016 16.9452 50.5403 17.6376C50.9749 18.0703 52.7132 17.2914 53.3216 17.1616Z" fill="#CF1F25"/>
<path d="M213.981 21.4889C213.068 23.09 211.113 24.518 209.592 25.5133C207.897 26.6384 206.115 27.5904 204.29 28.4991C202.552 29.3646 200.944 30.4032 199.249 31.3119C198.249 31.8312 197.25 32.3937 196.25 32.913C195.599 33.2592 194.469 33.6054 194.121 34.341C197.25 33.865 200.249 32.0475 203.03 30.5762C205.768 29.1482 208.809 28.1529 211.156 26.0326C212.243 25.0373 213.416 23.9987 214.242 22.7871C214.589 22.2678 214.676 21.7918 215.371 22.0947C215.763 22.2678 216.197 22.9602 216.241 23.3496C216.414 24.4747 215.285 26.1191 214.85 27.1144C214.285 28.3693 213.677 29.6675 213.286 31.009C212.938 32.2206 212.503 34.1679 212.981 35.3796C213.416 36.4181 214.546 36.8509 215.415 36.1152C216.023 35.5959 217.457 33.5188 217.023 32.6534C216.675 31.961 216.371 32.6101 216.11 32.9995C215.849 33.4323 215.502 33.9516 214.937 33.9083C213.329 33.8217 213.807 31.5283 214.155 30.6195C214.676 29.278 215.415 28.0231 215.936 26.7249C216.501 25.4267 217.24 23.7823 217.24 22.3111C217.24 20.9696 215.806 20.7099 215.589 19.6714C215.458 19.1521 215.719 18.5463 215.676 17.9837C215.589 17.3779 215.371 16.7288 214.98 16.2528C214.198 15.3441 213.068 15.8201 212.329 16.5557C211.678 17.2048 211.069 18.6761 211.287 19.6281C211.547 20.7965 213.025 21.1427 213.981 21.4889ZM212.894 17.8106C214.024 17.1183 214.633 18.7194 214.676 19.6281C213.937 19.5416 211.417 18.7194 212.894 17.8106Z" fill="#CF1F25"/>
<path d="M182.909 3.91996C184.213 3.31413 185.734 2.70831 186.95 1.97266C187.559 1.58321 188.515 -0.320818 187.168 0.111914C185.777 0.58792 184.343 1.5832 182.996 2.2323C181.649 2.8814 180.302 3.5305 178.998 4.22287C173.348 7.16545 167.612 10.0215 161.963 13.0073C159.312 14.4354 156.705 15.9499 154.141 17.5078C152.663 18.4165 151.186 19.3685 149.751 20.3638C149.273 20.71 148.361 21.1427 148.1 21.6187C147.796 22.0947 147.926 22.9602 147.883 23.5227C153.836 19.6714 159.66 15.8201 166.004 12.6179C171.61 9.6753 177.129 6.51635 182.909 3.91996Z" fill="#CF1F25"/>
<path d="M73.1377 10.3244C73.8765 11.1033 76.7446 12.3582 76.4404 13.4833C76.1797 14.3921 75.2671 15.1277 75.0932 16.0797C74.9194 16.8154 75.3974 16.9452 76.0058 17.3779C76.8315 17.9838 77.6572 18.5896 78.4394 19.1954C79.0478 19.6714 79.6128 20.4071 80.2646 19.758C80.8295 19.1954 81.1772 18.2001 81.5249 17.4645C81.9594 16.4259 82.0463 16.1663 81.1337 15.4739C80.3515 14.8681 79.5258 14.3055 78.7002 13.6997C78.2221 13.3535 77.9179 13.2237 77.9179 12.6611C77.9179 11.9255 78.7871 10.7571 79.0478 10.108C79.2216 9.71856 79.6128 8.98292 79.3955 8.55018C79.1347 8.03091 78.0483 7.5549 77.6137 7.25199C76.7446 6.68944 75.832 6.12688 74.9629 5.56433C74.3545 6.34325 73.9634 7.25199 73.5288 8.11745C73.3115 8.55018 72.9204 9.06946 72.8335 9.54547C72.6597 10.0647 72.79 9.93493 73.1377 10.3244Z" fill="#CF1F25"/>
<path d="M195.729 21.359C197.902 19.9743 196.467 17.0317 194.208 16.9019C193.034 16.8586 191.818 17.4644 190.688 17.7241C189.992 17.8972 187.428 18.7626 186.95 18.0703C187.95 17.2913 188.993 16.2095 190.297 15.9499C190.905 15.8201 190.818 15.9499 191.253 16.1662C191.513 16.2961 191.296 16.4692 191.6 16.3826C191.731 16.3393 191.948 15.8633 191.991 15.8201C192.426 14.9546 192.252 14.0026 191.079 13.916C190.036 13.8295 188.863 14.7382 188.124 15.344C187.081 16.1662 186.038 17.1183 185.821 18.4597C185.603 19.8445 186.385 20.2772 187.689 20.1041C189.123 19.931 190.601 19.5848 191.991 19.1521C193.295 18.7626 194.425 18.4165 195.294 19.7146C190.992 21.3158 185.907 23.1332 181.258 22.5707C180.432 23.4794 183.3 24.1285 183.865 24.1718C185.212 24.2583 186.559 23.9987 187.863 23.6958C189.21 23.3929 190.557 22.9601 191.904 22.5707C193.034 22.2678 194.686 22.0514 195.729 21.359Z" fill="#CF1F25"/>
<path d="M69.7039 64.2428C69.4432 63.6803 68.096 63.0745 67.618 62.7716C67.053 62.4254 65.8797 61.3868 65.2279 61.3435C64.5325 61.3003 64.098 62.1657 63.8372 62.6417C63.5765 63.1177 63.055 64.7189 62.5335 64.8919C62.0121 65.065 60.9256 64.0698 60.5345 63.8534C60.0565 63.5938 58.4051 62.5119 58.0575 62.7283C57.5795 63.0312 57.1883 64.3727 56.8842 64.8919C56.7103 65.2381 56.493 65.541 56.3192 65.8872C56.1019 66.32 55.9716 66.4498 56.2758 66.796C56.7103 67.272 57.7533 67.5749 58.3182 67.9211C58.9266 68.2673 59.8827 69.0895 60.5345 69.176C61.7079 69.3491 62.577 66.4931 63.0116 65.6709C63.8807 65.7574 64.7933 66.4931 65.5321 66.9691C65.8362 67.1422 67.3572 68.4836 67.6614 68.3971C68.1829 68.3105 68.7913 66.6662 69.0086 66.2334C69.2259 65.8007 69.9646 64.7189 69.7039 64.2428Z" fill="#CF1F25"/>
<path d="M42.6744 55.1554C42.5875 55.1122 41.8922 54.6362 41.7618 54.6362C40.9361 54.6362 39.9801 58.1413 39.7193 58.7904C38.7633 58.4009 37.8507 58.0115 36.8946 57.5788C36.5035 57.4057 36.0689 57.1027 35.6778 57.0595C35.1563 56.9729 35.3736 56.8431 35.026 57.3191C34.548 57.9682 34.3307 59.05 34.0265 59.7857C33.8092 60.305 33.4181 60.8675 33.8526 61.3002C34.2872 61.7763 35.5909 62.0359 36.1559 62.2523C36.7642 62.5119 38.2418 63.3774 38.7633 63.161C39.1978 62.9879 39.502 61.8195 39.6759 61.4301C40.0235 60.6511 40.3277 59.8722 40.6319 59.0933C41.501 59.5693 42.4136 60.0453 43.2828 60.4781C43.6739 60.6944 44.065 60.9541 44.4561 61.0839C45.021 61.257 44.9341 61.3003 45.2818 60.7377C45.8033 59.9155 47.1504 57.7951 46.4117 56.9297C45.9771 56.3671 44.6734 55.9776 44.065 55.6747C43.5001 55.5449 43.0655 55.3718 42.6744 55.1554Z" fill="#CF1F25"/>
<path d="M141.452 28.0664C141.061 28.1097 140.539 29.7973 140.365 30.1435C140.105 30.6628 139.887 31.5282 139.236 31.6581C138.453 31.2253 135.151 28.8886 134.542 29.3646C134.108 29.7108 133.76 31.0955 133.543 31.6148C133.369 32.0043 132.804 32.8697 132.934 33.3024C133.065 33.7785 134.542 34.2545 134.933 34.4708C135.629 34.8603 136.541 35.6825 137.324 35.8988C137.845 36.0287 137.802 36.2018 138.193 35.5959C138.366 35.293 138.497 34.9468 138.627 34.6439C138.975 33.865 139.323 33.0861 139.627 32.3072C140.496 32.8697 141.365 33.4323 142.234 33.9948C142.756 34.341 143.799 35.3363 144.277 34.9468C144.798 34.6006 145.102 33.2592 145.406 32.7399C145.798 32.0042 146.276 31.485 145.667 30.7926C145.146 30.1868 144.32 29.7108 143.625 29.278C143.19 29.0184 141.93 27.9798 141.452 28.0664Z" fill="#CF1F25"/>
<path d="M3.56335 34.7738C5.17125 35.9854 6.56187 33.7352 6.99644 32.4803C7.17027 31.961 7.82212 30.3599 7.43101 29.8839C6.86607 29.105 6.4315 30.4032 6.1273 30.7926C5.51891 31.6148 4.91051 31.5716 4.43249 30.6628C3.95446 29.7974 4.17175 28.7155 4.47595 27.8068C5.04088 25.8162 5.91002 23.9987 6.7357 22.138C7.12681 21.2293 7.47446 20.2772 7.77866 19.3252C7.95249 18.7194 8.47397 17.8972 7.60484 17.8107C5.82311 21.5322 3.60681 25.3402 2.6073 29.3646C2.21619 31.0956 1.91199 33.5189 3.56335 34.7738Z" fill="#CF1F25"/>
<path d="M156.096 25.946C156.574 25.5566 157.139 25.2536 157.704 25.0373C158.834 24.6911 160.094 24.9075 160.094 23.3496C160.094 22.3543 158.747 21.4456 157.921 21.0561C156.531 20.407 155.357 21.4023 155.357 22.9169C155.357 23.5227 155.444 23.6525 155.966 23.2631C156.531 22.8303 156.835 22.4842 157.487 23.09C156.357 23.7824 155.14 24.4315 154.705 25.7729C154.184 27.2875 154.923 28.5424 155.444 29.9272C156.096 31.5283 156.704 33.1726 157.096 34.8603C157.443 36.4614 157.313 37.7596 157.183 39.3607C158.443 39.1011 158.225 36.8941 158.225 35.9854C158.225 34.4276 158.052 32.9996 157.574 31.485C157.096 30.0137 156.444 28.629 155.792 27.2009C155.531 26.5951 155.488 26.422 156.096 25.946Z" fill="#CF1F25"/>
<path d="M107.338 39.9665C107.946 39.7069 108.729 38.7116 109.337 38.2789C109.989 37.8029 110.684 37.4134 111.379 37.024C112.857 36.1585 114.378 35.3363 115.855 34.5141C117.507 33.6486 119.158 32.7399 120.81 31.8744C121.548 31.485 122.591 31.1388 123.113 30.4897C123.33 30.2301 123.852 29.1915 123.504 28.9319C123.026 28.5424 119.549 30.7926 118.941 31.0955C117.333 31.961 115.725 32.7832 114.117 33.6486C112.553 34.5141 111.075 35.4661 109.554 36.3749C108.207 37.2403 106.947 38.2356 107.338 39.9665Z" fill="#CF1F25"/>
<path d="M118.462 19.4983C117.767 20.9696 119.071 22.614 119.766 23.7391C118.506 24.518 117.724 23.6092 117.376 22.4409C117.202 21.8783 116.768 19.5848 115.942 19.6281C115.768 20.9696 116.029 21.7485 116.377 23.0034C116.637 23.9987 116.55 24.9074 115.42 25.2536C113.248 25.9027 114.291 21.6619 113.204 20.9696C112.596 20.5801 112.596 21.0128 112.552 21.4889C112.509 21.7918 112.422 22.2245 112.509 22.4841C112.596 22.787 112.726 22.6572 112.857 22.9169C113.378 23.7823 113.204 24.994 113.552 25.9893C113.899 26.898 114.682 27.5471 115.638 27.1576C116.724 26.7249 116.507 25.6864 117.246 25.0373C117.941 25.946 119.027 26.7682 120.157 25.8594C120.635 25.47 120.853 24.6478 120.939 24.042C121.07 23.1765 120.722 22.7005 120.288 22.0514C119.853 21.4023 119.419 20.7965 119.114 20.0608C118.984 19.4117 118.854 18.7194 118.462 19.4983Z" fill="#CF1F25"/>
<path d="M214.676 60.5213C213.024 61.6464 211.243 62.2955 209.331 62.8148C208.809 62.9446 207.549 63.4206 207.288 62.7283C207.114 62.2522 208.157 61.0839 208.418 60.6511C208.939 59.7857 210.374 57.5787 209.331 56.8431C208.592 56.3238 207.418 56.3671 206.636 56.67C205.767 57.0162 205.637 57.8384 205.637 58.7038C206.506 58.5308 207.983 57.9682 208.679 58.7471C207.766 60.2184 206.506 61.7762 206.332 63.5505C206.289 63.9832 206.289 64.3294 206.462 64.5457C206.854 65.4977 208.418 65.3247 209.635 64.8486C209.722 64.8054 209.852 64.8054 209.939 64.7188C210.721 64.5457 211.764 63.7668 212.416 63.3774C213.111 62.9446 213.807 62.5552 214.458 62.0359C214.806 61.7762 216.197 60.6079 216.197 60.1319C216.284 59.05 214.893 60.3482 214.676 60.5213Z" fill="#CF1F25"/>
<path d="M61.0127 22.3976C60.3609 22.9169 60.5782 24.6911 61.23 25.0373C61.708 25.2969 62.6206 25.5565 63.1421 25.5998C63.2725 25.5998 63.5767 25.3834 63.6201 25.3834C63.8374 25.47 64.0112 25.7729 64.1851 25.946C64.6196 26.422 64.9673 26.9413 65.2715 27.4606C65.5322 27.8933 65.7495 28.6722 66.0972 29.0617C67.1401 30.1002 67.0098 27.1144 67.0532 26.5518C67.1401 25.2104 67.0532 23.566 67.5747 22.3111C68.1831 20.883 69.0957 21.8783 69.8345 22.7005C71.2251 20.9263 68.6611 18.2434 67.314 20.2772C66.6621 21.2292 66.6186 22.5274 66.4883 23.6525C66.4448 24.0853 66.5317 26.5086 66.1841 26.5951C65.5757 25.5565 65.0107 24.4747 64.1416 23.6092C63.5767 22.9169 61.9688 21.6187 61.0127 22.3976Z" fill="#CF1F25"/>
<path d="M115.247 8.0309C116.073 7.59816 116.898 7.25198 117.724 6.81924C118.55 6.42979 118.637 5.99705 119.028 5.13159C118.419 4.48249 116.725 5.73741 116.116 5.99705C114.943 6.51633 113.465 5.82396 112.422 5.21814C112.683 4.87195 113.639 4.09303 114.161 4.13631C114.639 4.17958 114.465 4.56904 114.769 4.87195C115.247 5.30468 115.508 4.61231 115.682 4.09303C115.899 3.40066 115.769 2.5352 114.986 2.27556C113.813 1.92937 112.118 3.6603 111.64 4.61231C111.379 5.13159 111.075 5.91051 111.206 6.51633C111.379 7.12216 112.075 7.3818 112.596 7.64144C111.249 8.46363 110.119 8.89636 110.25 10.7571C111.988 10.0215 113.596 8.89636 115.247 8.0309Z" fill="#CF1F25"/>
<path d="M31.2886 16.6855C31.9404 16.9019 32.1142 17.1182 32.4619 16.5557C33.3745 17.551 34.0698 18.5463 34.7217 19.7146C34.852 19.931 35.1997 20.6667 35.5473 20.5801C35.8515 20.4936 35.895 19.2386 35.9384 19.0655C36.0254 18.027 34.9824 13.1371 36.5034 13.1804C36.9379 13.1804 37.5898 13.916 37.8505 13.8295C38.1982 13.6997 38.1547 12.964 38.1547 12.7044C38.1547 12.012 38.0244 11.8389 37.416 11.536C36.9814 11.3196 36.4165 10.9734 35.9384 11.2331C35.1562 11.6658 35.1128 13.6997 35.1128 14.392C35.1128 15.6037 35.2431 16.8153 35.3735 17.9837C35.1562 18.027 33.896 15.7335 33.5918 15.3873C32.853 14.4786 31.9404 13.8728 30.854 13.5698C30.5933 13.4833 30.2891 13.3535 30.0283 13.3967C29.5938 13.5266 29.6807 13.5698 29.6372 14.0891C29.5937 14.6084 29.3765 15.4739 29.7241 15.9499C30.0718 16.4259 30.8105 16.5124 31.2886 16.6855Z" fill="#CF1F25"/>
<path d="M152.794 7.07887C152.968 7.12214 153.62 7.42505 153.75 7.38178C153.837 7.33851 153.967 6.8625 154.011 6.77596C154.75 7.42505 155.402 8.07415 155.923 8.89634C156.227 9.37235 156.618 10.8869 157.183 11.0167C157.705 10.4109 157.618 9.41562 157.661 8.67998C157.705 7.77124 157.705 6.90577 157.748 5.99704C157.792 5.39121 157.792 4.30938 158.574 4.09301C159.139 3.91992 159.617 4.52575 160.095 4.74211C160.182 3.87665 160.529 3.01119 159.747 2.40536C159.182 1.97263 158.487 1.88608 157.965 2.44863C156.575 3.91992 157.574 6.55959 156.966 8.20397C156.053 6.51631 154.619 4.17956 152.446 3.9632C151.621 3.87665 151.534 4.22283 151.447 4.95848C151.403 5.34794 151.317 6.17013 151.577 6.55959C151.795 6.90578 152.403 6.94905 152.794 7.07887Z" fill="#CF1F25"/>
<path d="M164.179 33.3458C163.658 32.8265 162.31 31.7447 161.528 32.0476C160.789 32.3505 160.833 34.0381 161.311 34.6007C161.572 34.9036 162.354 35.1632 162.745 35.2931C162.875 35.3363 163.049 35.4229 163.18 35.4661C163.223 35.4229 163.266 35.3363 163.31 35.2931C163.527 35.3363 163.353 35.12 163.701 35.2498C164.57 35.6392 165.005 37.4134 165.396 38.1491C166.135 39.5771 166.352 37.8029 166.439 36.9807C166.569 35.8556 166.352 34.4709 166.96 33.4756C167.525 32.4803 168.351 32.8265 168.829 33.692C169.22 33.1294 169.611 32.1341 169.22 31.485C168.785 30.8359 167.873 30.6195 167.221 31.0523C165.7 32.0476 166.135 34.6007 165.787 36.1152C165.309 35.1632 164.918 34.1247 164.179 33.3458Z" fill="#CF1F25"/>
<path d="M11.472 49.4001C12.1239 49.0539 12.7323 48.6212 13.0365 47.9721C13.3407 47.323 13.6014 46.0681 13.1234 45.419C12.6019 44.6833 11.5155 44.5968 10.8202 44.1208C10.2552 43.7313 10.3856 43.8178 10.4291 43.1255C10.4725 42.5196 10.6463 42.3033 9.99449 42.26C9.16881 44.164 8.43005 45.7651 8.47351 47.8855C8.56042 49.8328 9.90758 50.2223 11.472 49.4001ZM9.64684 45.7651C10.3856 46.0681 11.1244 46.3277 11.8197 46.6306C11.3417 47.0201 10.3856 47.7557 9.73375 47.4961C8.90807 47.1932 9.42955 46.2844 9.64684 45.7651Z" fill="#CF1F25"/>
<path d="M79.2648 59.3962C79.569 58.7904 80.9162 57.0594 79.7429 56.9296C78.3522 59.3097 76.3098 61.3868 75.9621 64.2428C75.8317 65.2381 76.049 67.0556 77.2224 67.3585C78.3088 67.6614 79.1345 66.1901 79.5256 65.4112C79.6994 65.065 80.2209 64.113 80.0905 63.7235C79.8298 62.7715 79.3952 63.9399 79.1779 64.3293C78.3088 65.7574 77.3093 64.5457 77.3962 63.2475C77.4831 61.9493 78.6564 60.5213 79.2648 59.3962Z" fill="#CF1F25"/>
<path d="M185.647 58.1846C185.169 57.622 184.126 56.4104 183.257 56.5402C183.126 56.9729 182.735 57.7951 182.822 58.2711C182.909 58.7038 183.474 58.9635 183.822 59.2231C184.647 59.8722 185.256 60.6511 185.647 61.6032C186.081 62.7283 186.125 64.0265 185.951 65.2381C185.821 66.2334 185.212 67.3152 185.386 68.3538C186.125 67.4018 186.516 66.1036 186.733 64.8919C186.907 63.7668 187.255 62.7283 187.168 61.6032C186.994 60.305 186.472 59.1366 185.647 58.1846Z" fill="#CF1F25"/>
<path d="M61.4911 35.4661C61.6649 34.9901 62.6644 32.8265 61.7084 32.7832C61.1435 34.1247 60.6654 35.5094 60.1874 36.8942C59.7963 38.1058 59.2748 39.3607 59.4052 40.6589C59.4921 41.4378 60.0136 42.8659 61.0565 42.736C62.143 42.6062 62.5775 40.832 62.7079 40.0098C62.7079 39.88 62.8817 38.7982 62.2733 39.1444C61.9257 39.3175 62.056 40.356 61.6649 40.6589C60.7523 41.2648 60.2743 39.5338 60.3178 38.928C60.4481 37.6731 61.1 36.548 61.4911 35.4661Z" fill="#CF1F25"/>
<path d="M12.3409 65.1948C12.5582 64.589 13.6881 62.0792 12.6016 62.0359C11.9063 63.5937 11.3848 65.2814 10.8199 66.8825C10.3419 68.2672 9.73349 69.8251 9.90732 71.2964C9.99423 72.2051 10.6461 73.8927 11.8629 73.7629C13.1666 73.6331 13.6881 71.556 13.8184 70.5174C13.8619 70.3443 14.0357 69.0894 13.3404 69.4789C12.9493 69.6952 13.0797 70.9069 12.6016 71.2531C11.5152 71.9887 10.9937 69.9116 11.0372 69.2192C11.0807 67.8345 11.8629 66.5363 12.3409 65.1948Z" fill="#CF1F25"/>
<path d="M94.9091 29.7541C95.9086 30.057 96.5171 28.5857 96.7343 27.8068C96.7778 27.5904 96.9951 26.8547 96.7778 26.6817C96.3432 26.3355 96.2128 27.374 95.9956 27.6337C95.1264 28.4991 94.7353 26.8547 94.7788 26.1624C94.8222 24.9075 95.5175 23.5227 95.9521 22.3976C96.2129 21.7485 97.082 20.2772 96.0825 20.0176C95.2133 22.2678 93.9966 24.6911 93.7793 27.1577C93.6924 28.0231 93.8662 29.4511 94.9091 29.7541Z" fill="#CF1F25"/>
<path d="M108.816 18.7194C108.598 19.3685 108.12 21.0994 107.338 19.7147C106.86 18.8492 107.381 17.551 107.642 16.6855C107.859 15.9066 108.772 14.1757 108.468 13.3535C108.033 12.1851 107.468 14.7382 107.338 15.1277C106.817 16.8153 105.165 20.3205 106.73 21.835C108.685 23.6958 109.858 18.8059 108.816 18.7194Z" fill="#CF1F25"/>
<path d="M24.4662 61.1271C23.7275 60.6511 23.0322 60.9108 22.5541 61.5599C22.2065 62.0791 21.4677 63.2908 21.8154 63.8966C22.2499 63.7668 22.9018 62.9013 23.4233 63.2908C23.9882 63.6802 23.4233 64.7621 23.1625 65.1948C22.9453 65.541 21.7719 66.7959 22.4238 67.0123C22.9887 67.2287 23.9882 65.7574 24.249 65.4112C24.9877 64.3293 25.9438 62.0359 24.4662 61.1271Z" fill="#CF1F25"/>
<path d="M189.384 27.0278C188.819 28.5424 188.211 30.057 187.689 31.5715C187.298 32.6966 186.994 34.0381 187.472 35.1632C187.82 36.0287 188.863 36.8941 189.688 36.0287C190.036 35.6825 190.992 33.0861 190.08 33.0428C189.862 33.6919 189.558 34.9036 188.689 34.0814C188.037 33.4323 188.124 32.5235 188.341 31.7446C188.602 30.8359 190.471 27.5471 189.384 27.0278Z" fill="#CF1F25"/>
<path d="M160.095 57.2758C160.269 56.9297 160.616 56.4104 160.703 56.0209C160.834 55.5016 160.92 55.6315 160.399 55.3286C159.443 57.1893 157.4 59.9588 158.139 62.1657C158.487 63.2043 159.486 63.6803 160.269 62.7715C160.616 62.3821 160.834 61.7763 161.007 61.257C161.225 60.6512 161.529 60.2184 160.877 59.9155C160.703 60.3482 160.486 61.4301 159.791 61.3003C159.095 61.1704 158.921 59.8722 159.052 59.353C159.269 58.7039 159.791 57.9682 160.095 57.2758Z" fill="#CF1F25"/>
<path d="M28.3333 40.2262C28.2464 40.0098 28.0725 39.9665 27.9856 39.9233C27.2034 39.4905 23.9007 37.1538 23.2923 37.6298C22.8577 37.976 22.5101 39.3607 22.2928 39.88C22.1189 40.2695 21.554 41.1349 21.6844 41.5677C21.8148 42.0437 23.2923 42.5197 23.6834 42.736C24.3787 43.1255 25.2913 43.9477 26.0735 44.1641C26.595 44.2939 26.5515 44.467 26.9427 43.8611C27.1165 43.5582 27.2469 43.212 27.3772 42.9091C27.7249 42.1302 28.0725 41.3513 28.3767 40.5724C28.4202 40.4858 28.4202 40.356 28.3333 40.2262Z" fill="#CF1F25"/>
<path d="M7.30074 96.8709C7.30074 97.3469 7.3442 97.6065 7.56148 97.6498C7.60494 97.6931 7.60494 97.9094 7.51802 97.9094C7.30074 97.9527 6.99654 97.996 6.69234 98.0825C6.30123 98.2123 5.25827 98.3422 4.60642 98.3422C3.8242 98.3422 3.12889 98.2556 2.30321 97.9527C0.912592 97.3902 0 96.0919 0 94.4043C0 92.933 0.651852 91.6781 2.08593 90.8559C2.86815 90.4232 3.8242 90.2501 4.8237 90.2501C6.12741 90.2501 6.77926 90.5097 7.12691 90.5097C7.17037 90.8559 7.17037 91.6781 7.30074 92.3705C7.25728 92.5003 6.95309 92.5003 6.86617 92.4137C6.47506 91.3319 5.73629 90.7693 4.64988 90.7693C2.78123 90.7693 1.86864 92.3272 1.86864 94.1447C1.86864 95.8323 2.43358 96.8276 3.2158 97.3036C3.78074 97.6931 4.38913 97.7363 4.8237 97.7363C5.47555 97.7363 5.64938 97.6065 5.64938 96.8276V96.0919C5.64938 95.4428 5.56247 95.3996 4.99753 95.313L4.47605 95.2265C4.34568 95.1399 4.34568 94.8803 4.47605 94.837C5.30173 94.8803 5.86667 94.8803 6.47506 94.8803C7.04 94.8803 7.60494 94.8803 7.99605 94.837C8.08296 94.9236 8.08296 95.1832 7.99605 95.2265L7.73531 95.2698C7.38765 95.313 7.30074 95.4428 7.30074 96.0919V96.8709Z" fill="#231F20"/>
<path d="M18.0776 94.2745C18.0776 96.8276 16.3828 98.3422 13.8623 98.3422C11.5156 98.3422 9.77734 96.7843 9.77734 94.361C9.77734 92.0675 11.5156 90.2501 13.9492 90.2501C16.3828 90.2933 18.0776 91.9377 18.0776 94.2745ZM13.8623 90.8126C12.4282 90.8126 11.646 92.1541 11.646 94.1014C11.646 95.5294 12.1675 97.8229 14.0796 97.8229C15.6006 97.8229 16.2089 96.3083 16.2089 94.4476C16.1655 92.457 15.2964 90.8126 13.8623 90.8126Z" fill="#231F20"/>
<path d="M24.7265 95.2698C24.1181 96.6978 23.8139 97.6065 23.5532 98.2556C23.4663 98.2989 23.3359 98.3422 23.1621 98.3422C23.0317 98.3422 22.9014 98.2989 22.8579 98.2556C22.7275 97.9527 22.5102 97.3036 22.3799 96.9141L20.4678 92.1541C20.0332 91.029 19.9463 91.029 19.5986 90.8992L19.1206 90.7693C19.0337 90.6395 19.0772 90.4232 19.1641 90.3799C19.7725 90.3799 20.1636 90.4232 20.772 90.4232C21.2935 90.4232 21.8149 90.4232 22.5102 90.3799C22.5972 90.4664 22.5972 90.6828 22.5102 90.7693L22.1626 90.8559C21.9453 90.8992 21.8584 90.9857 21.8584 91.0723C21.8584 91.1588 22.0322 91.6348 22.3364 92.3705L23.3794 95.0101L23.7705 96.0054C23.8574 95.789 24.0312 95.3996 24.2051 95.0534L24.6396 93.9716C24.9438 93.2359 25.4219 91.9377 25.5957 91.5483C25.6826 91.3319 25.726 91.2021 25.726 91.1155C25.726 91.029 25.6391 90.9857 25.3349 90.8992L24.9438 90.8126C24.8569 90.7261 24.8569 90.4664 24.9873 90.4232C25.5522 90.4664 25.9868 90.4664 26.4214 90.4664C26.8125 90.4664 27.1601 90.4664 27.5078 90.4232C27.5947 90.4664 27.5947 90.7693 27.5512 90.8126L27.247 90.8559C26.8994 90.8992 26.7256 90.9857 26.5517 91.2453C26.291 91.6348 25.9868 92.2839 25.5957 93.2359L24.7265 95.2698Z" fill="#231F20"/>
<path d="M31.115 93.4955C31.115 93.8417 31.115 93.8417 31.4626 93.8417H32.2883C32.8967 93.8417 33.0271 93.7552 33.1574 93.1926L33.2009 92.8897C33.2878 92.8032 33.592 92.8032 33.6355 92.8897C33.592 93.2792 33.592 93.6686 33.592 94.1446C33.592 94.5774 33.592 95.0101 33.6355 95.3996C33.592 95.4861 33.2878 95.5294 33.2009 95.3996L33.1574 95.0967C33.0271 94.5341 32.8967 94.4476 32.2883 94.4476H31.4626C31.1584 94.4476 31.115 94.4476 31.115 94.7937V96.1785C31.115 96.6978 31.1584 97.0872 31.2888 97.3036C31.4626 97.52 31.6799 97.6065 32.5056 97.6065C33.5051 97.6065 33.9397 97.5632 34.5915 96.265C34.6784 96.1352 34.9826 96.1785 35.0261 96.3083C34.9826 96.9141 34.6784 97.8661 34.5481 98.1691C33.9397 98.1258 32.8098 98.1258 31.8537 98.1258H30.3328C29.7678 98.1258 29.2029 98.1258 28.3337 98.1691C28.2468 98.0825 28.2468 97.8229 28.3337 97.7796L28.8987 97.6931C29.4202 97.6065 29.5071 97.52 29.5071 96.4814V92.1108C29.5071 91.029 29.4202 90.9857 28.8987 90.8559L28.5945 90.8126C28.5076 90.7261 28.5076 90.4664 28.6379 90.4232C29.2029 90.4664 29.7678 90.4664 30.3328 90.4664H32.8098C33.5486 90.4664 34.2439 90.4664 34.3742 90.4232C34.3742 90.5962 34.4611 91.4617 34.5481 92.2406C34.5046 92.3704 34.2439 92.4137 34.1135 92.2839C33.9831 91.8944 33.8093 91.505 33.6789 91.3752C33.4616 91.1588 33.114 91.029 32.5491 91.029H31.593C31.2019 91.029 31.2019 91.0723 31.2019 91.505V93.4955H31.115Z" fill="#231F20"/>
<path d="M37.5465 92.3705C37.5465 91.2021 37.5031 91.0723 37.0251 90.9857L36.7209 90.9424C36.5905 90.8992 36.5905 90.5963 36.7643 90.553C37.6335 90.5097 38.546 90.4664 39.6759 90.4664C40.6754 90.4664 41.5446 90.6395 41.9791 90.8992C42.6744 91.2886 43.0221 91.8944 43.0221 92.6301C43.0221 93.6686 42.3268 94.1014 41.7618 94.361C41.6315 94.4043 41.6315 94.4908 41.7184 94.6207C42.5006 96.1785 42.9786 97.044 43.5436 97.52C43.8478 97.7796 44.152 97.8229 44.3258 97.8662C44.4127 97.9094 44.4127 98.0825 44.3693 98.1691C44.1954 98.2556 43.8043 98.2556 43.4567 98.2556C42.3702 98.2556 41.7184 97.8662 41.1969 97.044C40.8058 96.4381 40.5451 95.8323 40.2843 95.2265C40.1539 94.9236 39.9367 94.837 39.6759 94.837C39.2848 94.837 39.2414 94.8803 39.2414 95.0967V96.5247C39.2414 97.6065 39.3283 97.6931 39.8498 97.7796L40.1539 97.8229C40.2409 97.8662 40.2409 98.1691 40.1539 98.2123C39.5456 98.1691 38.9806 98.1691 38.4157 98.1691C37.8507 98.1691 37.3293 98.1691 36.7209 98.2123C36.6339 98.1258 36.6339 97.8662 36.7209 97.8229L37.0251 97.7796C37.5465 97.6931 37.6335 97.6065 37.6335 96.5247V92.3705H37.5465ZM39.1544 93.8418C39.1544 94.2312 39.1979 94.2745 39.8932 94.2745C40.3278 94.2745 40.5451 94.1879 40.8058 93.9283C41.0231 93.7119 41.2404 93.3657 41.2404 92.6734C41.2404 91.6348 40.632 90.9424 39.7194 90.9424C39.2414 90.9424 39.1979 90.9857 39.1979 91.5483V93.8418H39.1544Z" fill="#231F20"/>
<path d="M52.7998 96.1785C52.7998 96.9574 52.7998 97.6931 52.8432 98.0392C52.7563 98.1691 52.4521 98.2989 52.1479 98.2989C52.1479 98.2989 51.7568 97.6931 51.1919 97.044L48.4976 93.7119C47.8023 92.8897 47.4112 92.4137 47.2373 92.1974C47.1939 92.3272 47.1939 92.5003 47.1939 92.933V95.1832C47.1939 96.1352 47.2373 97.0007 47.3677 97.3036C47.4546 97.5632 47.7588 97.6498 48.063 97.6931L48.4107 97.7363C48.4976 97.8229 48.4976 98.0825 48.4107 98.1258C47.7588 98.0825 47.3242 98.0825 46.8462 98.0825C46.4116 98.0825 45.9771 98.0825 45.5425 98.1258C45.4556 98.0393 45.4556 97.8229 45.5425 97.7363L45.7598 97.6931C46.064 97.6498 46.3247 97.5632 46.4116 97.3036C46.542 97.0007 46.5855 96.092 46.5855 95.1832V92.2839C46.5855 91.6348 46.5855 91.4617 46.4986 91.2886C46.4116 91.0723 46.2378 90.9424 45.8467 90.8992L45.4991 90.8559C45.4121 90.7694 45.4121 90.4664 45.5425 90.4664C46.1074 90.5097 46.6724 90.5097 47.1504 90.5097C47.5415 90.5097 47.8892 90.5097 48.1499 90.4664C48.2803 90.9857 49.019 91.8945 50.1055 93.1494L51.105 94.3178C51.6265 94.9236 51.9741 95.313 52.2349 95.616C52.2783 95.4861 52.2783 95.313 52.2783 95.0967V93.4956C52.2783 92.5435 52.2349 91.6781 52.1045 91.3752C52.0176 91.1155 51.7568 91.029 51.4092 90.9857L51.105 90.9424C51.0181 90.8559 51.0181 90.5963 51.105 90.553C51.7568 90.5963 52.1914 90.5963 52.6694 90.5963C53.104 90.5963 53.5386 90.5963 53.9731 90.553C54.06 90.6395 54.06 90.8559 53.9731 90.9424L53.7558 90.9857C53.4516 91.029 53.2344 91.1155 53.104 91.3752C52.9736 91.6781 52.9302 92.5868 52.9302 93.4956V96.1785H52.7998Z" fill="#231F20"/>
<path d="M55.4508 90.8559C55.3639 90.7694 55.3639 90.4664 55.4943 90.4664C55.8854 90.5097 56.4069 90.5097 56.9718 90.5097C57.3629 90.5097 57.7106 90.5097 58.1017 90.4664C58.1017 91.2021 58.4928 91.8945 59.0143 93.0196L59.7965 94.6639C59.8834 94.8803 60.318 95.6159 60.4918 95.9189C60.6657 95.6592 60.8395 95.2698 61.1437 94.5774L61.7521 93.2792C62.317 92.0675 62.6212 91.4617 62.882 90.4664C63.4034 90.5097 63.7076 90.5097 64.0553 90.5097C64.4464 90.5097 64.9679 90.5097 65.4024 90.4664C65.5328 90.553 65.5328 90.7694 65.4459 90.8559L65.0982 90.8992C64.6202 90.9857 64.4029 91.1155 64.4029 91.7214C64.4029 94.1447 64.4464 95.3996 64.4899 96.8709C64.5333 97.3902 64.5768 97.6931 65.0113 97.7363L65.4024 97.7796C65.4894 97.8662 65.4894 98.1258 65.359 98.1691C64.8375 98.1258 64.316 98.1258 63.7511 98.1258C63.2296 98.1258 62.5778 98.1258 62.0128 98.1691C61.8824 98.1258 61.839 97.8229 61.9694 97.7796L62.317 97.7363C62.8385 97.6498 62.8385 97.52 62.8385 96.8276L62.795 93.7985V92.457H62.7516C61.8824 94.3178 60.9264 96.265 60.1876 98.2556C60.1442 98.2989 60.0573 98.3422 59.9703 98.3422C59.8834 98.3422 59.7531 98.2989 59.6661 98.2556C59.1881 96.8276 57.7541 93.9283 57.1022 92.4137H57.0587C57.0153 93.1926 57.0153 93.6687 56.9718 94.2745C56.9718 95.0534 56.9284 96.2218 56.9284 96.9142C56.9284 97.4767 57.0153 97.6498 57.4499 97.7363L57.9279 97.8229C58.0148 97.9094 58.0148 98.1691 57.8844 98.2123C57.4499 98.1691 56.9284 98.1691 56.4938 98.1691C56.1027 98.1691 55.6681 98.1691 55.1901 98.2123C55.0163 98.1691 55.0163 97.8662 55.1466 97.8229L55.3639 97.7796C55.9723 97.6931 56.0158 97.6065 56.1027 96.8709C56.1461 96.3083 56.1896 95.2698 56.2765 94.1879C56.32 93.409 56.3634 92.457 56.3634 91.8079C56.3634 91.1588 56.1027 90.9857 55.6247 90.8992L55.4508 90.8559Z" fill="#231F20"/>
<path d="M69.8786 93.4955C69.8786 93.8417 69.8786 93.8417 70.2263 93.8417H71.052C71.6604 93.8417 71.7907 93.7552 71.9211 93.1926L71.9646 92.8897C72.0515 92.8032 72.3557 92.8032 72.3991 92.8897C72.3557 93.2792 72.3557 93.6686 72.3557 94.1446C72.3557 94.5774 72.3557 95.0101 72.3991 95.3996C72.3557 95.4861 72.0515 95.5294 71.9646 95.3996L71.9211 95.0967C71.7907 94.5341 71.6604 94.4476 71.052 94.4476H70.2263C69.9221 94.4476 69.8786 94.4476 69.8786 94.7937V96.1785C69.8786 96.6978 69.9221 97.0872 70.0525 97.3036C70.2263 97.52 70.4436 97.6065 71.2693 97.6065C72.2688 97.6065 72.7033 97.5632 73.3552 96.265C73.4421 96.1352 73.7463 96.1785 73.7898 96.3083C73.7463 96.9141 73.4421 97.8661 73.3117 98.1691C72.7033 98.1258 71.5735 98.1258 70.6174 98.1258H69.0964C68.5315 98.1258 67.9665 98.1258 67.0974 98.1691C67.0105 98.0825 67.0105 97.8229 67.0974 97.7796L67.6624 97.6931C68.1838 97.6065 68.2707 97.52 68.2707 96.4814V92.1108C68.2707 91.029 68.1838 90.9857 67.6624 90.8559L67.3581 90.8126C67.2712 90.7261 67.2712 90.4664 67.4016 90.4232C67.9665 90.4664 68.5315 90.4664 69.0964 90.4664H71.5735C72.3122 90.4664 73.0075 90.4664 73.1379 90.4232C73.1379 90.5962 73.2248 91.4617 73.3117 92.2406C73.2683 92.3704 73.0075 92.4137 72.8772 92.2839C72.7468 91.8944 72.573 91.505 72.4426 91.3752C72.2253 91.1588 71.8777 91.029 71.3127 91.029H70.3567C69.9656 91.029 69.9656 91.0723 69.9656 91.505V93.4955H69.8786Z" fill="#231F20"/>
<path d="M82.6113 96.1785C82.6113 96.9574 82.6113 97.6931 82.6548 98.0392C82.5679 98.1691 82.2637 98.2989 81.9595 98.2989C81.9595 98.2989 81.5684 97.6931 81.0034 97.044L78.3091 93.7119C77.6138 92.8897 77.2227 92.4137 77.0488 92.1974C77.0054 92.3272 77.0054 92.5003 77.0054 92.933V95.1832C77.0054 96.1352 77.0488 97.0007 77.1792 97.3036C77.2661 97.5632 77.5703 97.6498 77.8745 97.6931L78.2222 97.7363C78.3091 97.8229 78.3091 98.0825 78.2222 98.1258C77.5703 98.0825 77.1358 98.0825 76.6577 98.0825C76.2232 98.0825 75.7886 98.0825 75.354 98.1258C75.2671 98.0393 75.2671 97.8229 75.354 97.7363L75.5713 97.6931C75.8755 97.6498 76.1363 97.5632 76.2232 97.3036C76.3535 97.0007 76.397 96.092 76.397 95.1832V92.2839C76.397 91.6348 76.397 91.4617 76.3101 91.2886C76.2232 91.0723 76.0493 90.9424 75.6582 90.8992L75.3106 90.8559C75.2237 90.7694 75.2237 90.4664 75.354 90.4664C75.919 90.5097 76.4839 90.5097 76.9619 90.5097C77.353 90.5097 77.7007 90.5097 77.9614 90.4664C78.0918 90.9857 78.8306 91.8945 79.917 93.1494L80.9165 94.3178C81.438 94.9236 81.7856 95.313 82.0464 95.616C82.0898 95.4861 82.0898 95.313 82.0898 95.0967V93.4956C82.0898 92.5435 82.0464 91.6781 81.916 91.3752C81.8291 91.1155 81.5684 91.029 81.2207 90.9857L80.9165 90.9424C80.8296 90.8559 80.8296 90.5963 80.9165 90.553C81.5684 90.5963 82.0029 90.5963 82.4809 90.5963C82.9155 90.5963 83.3501 90.5963 83.7846 90.553C83.8716 90.6395 83.8716 90.8559 83.7846 90.9424L83.5674 90.9857C83.2632 91.029 83.0459 91.1155 82.9155 91.3752C82.7851 91.6781 82.7417 92.5868 82.7417 93.4956V96.1785H82.6113Z" fill="#231F20"/>
<path d="M87.8701 91.3319C87.8701 91.0722 87.8701 90.9857 87.6094 90.9857H86.8706C86.0015 90.9857 85.7842 91.4617 85.4365 92.2839C85.3062 92.3704 85.0889 92.3272 85.002 92.1973C85.2627 91.3752 85.3061 90.6828 85.3931 90.2068C85.4365 90.1635 85.48 90.1635 85.5669 90.1635C85.6103 90.1635 85.6973 90.1635 85.7407 90.2068C85.7842 90.4232 85.8276 90.4664 86.7402 90.4664H91.0859C91.8681 90.4664 92.042 90.4664 92.1289 90.2068C92.1723 90.1635 92.2158 90.1635 92.3027 90.1635C92.3896 90.1635 92.4765 90.2068 92.4765 90.2501C92.3461 90.6395 92.2592 91.5915 92.3027 92.2406C92.2592 92.3272 91.9116 92.3704 91.8681 92.2839C91.6508 91.5483 91.5205 90.9857 90.6079 90.9857H89.9126C89.6518 90.9857 89.6084 91.029 89.6084 91.3319V96.4814C89.6084 97.5632 89.6953 97.6498 90.2168 97.7363L90.6948 97.7796C90.7817 97.8662 90.7817 98.1258 90.6948 98.1691C89.9126 98.1258 89.3476 98.1258 88.8262 98.1258C88.2612 98.1258 87.6528 98.1258 86.8271 98.1691C86.7402 98.0825 86.7402 97.8229 86.8271 97.7796L87.3486 97.7363C87.8701 97.6931 87.957 97.5632 87.957 96.4814V91.3319H87.8701Z" fill="#231F20"/>
<path d="M106.338 94.2745C106.338 96.8276 104.644 98.3422 102.123 98.3422C99.7764 98.3422 98.0381 96.7843 98.0381 94.361C98.0381 92.0675 99.7764 90.2501 102.21 90.2501C104.687 90.2933 106.338 91.9377 106.338 94.2745ZM102.123 90.8126C100.689 90.8126 99.9067 92.1541 99.9067 94.1014C99.9067 95.5294 100.428 97.8229 102.34 97.8229C103.861 97.8229 104.47 96.3083 104.47 94.4476C104.47 92.457 103.601 90.8126 102.123 90.8126Z" fill="#231F20"/>
<path d="M110.988 93.6254C110.988 93.9283 110.989 93.9716 111.336 93.9716H112.249C112.857 93.9716 112.988 93.885 113.118 93.3225L113.161 93.0628C113.248 92.9763 113.552 92.9763 113.596 93.0628C113.552 93.4523 113.552 93.885 113.552 94.3178C113.552 94.7505 113.552 95.1832 113.596 95.5294C113.509 95.6159 113.248 95.6592 113.161 95.5294L113.118 95.2698C112.988 94.7072 112.857 94.6207 112.249 94.6207H111.336C111.032 94.6207 110.988 94.6639 110.988 94.9669V96.5247C110.988 97.6065 111.075 97.6931 111.597 97.7796L112.031 97.8229C112.118 97.9094 112.118 98.1691 112.031 98.2123C111.293 98.1691 110.728 98.1691 110.163 98.1691C109.641 98.1691 109.033 98.1691 108.338 98.2123C108.251 98.1258 108.251 97.8662 108.338 97.8229L108.729 97.7796C109.25 97.6931 109.337 97.6065 109.337 96.5247V92.1974C109.337 91.1155 109.25 90.9857 108.729 90.9424L108.511 90.8992C108.425 90.8126 108.425 90.553 108.555 90.5097C109.076 90.553 109.641 90.553 110.206 90.553H112.683C113.422 90.553 114.117 90.553 114.248 90.5097C114.248 90.7261 114.248 91.5483 114.291 92.3272C114.248 92.457 113.987 92.457 113.857 92.3705C113.726 91.8945 113.639 91.5915 113.509 91.4617C113.292 91.2021 112.944 91.0723 112.379 91.0723H111.467C111.075 91.0723 111.075 91.1155 111.075 91.5483V93.6254H110.988Z" fill="#231F20"/>
<path d="M120.81 92.1541C120.81 91.0723 120.723 90.9857 120.202 90.8992L119.897 90.8559C119.811 90.7693 119.811 90.5097 119.941 90.4664C120.506 90.5097 121.071 90.5097 121.636 90.5097C122.201 90.5097 122.766 90.5097 123.331 90.4664C123.417 90.553 123.417 90.8126 123.331 90.8559L123.07 90.8992C122.548 90.9857 122.461 91.0723 122.461 92.1541V94.837C122.461 96.2218 122.635 97.6931 124.417 97.6931C125.938 97.6931 126.373 96.3949 126.373 94.7937V93.3657C126.373 92.4137 126.329 91.5483 126.199 91.2453C126.112 90.9857 125.851 90.9424 125.503 90.8559L125.199 90.8126C125.112 90.7261 125.112 90.4664 125.199 90.4232C125.851 90.4664 126.286 90.4664 126.764 90.4664C127.198 90.4664 127.633 90.4664 128.067 90.4232C128.154 90.5097 128.154 90.7261 128.067 90.8126L127.85 90.8559C127.546 90.9424 127.329 90.9857 127.198 91.2453C127.068 91.5483 127.024 92.457 127.024 93.3657V94.6639C127.024 95.7458 126.937 96.7843 126.286 97.4767C125.764 98.0392 124.895 98.2989 123.982 98.2989C123.07 98.2989 122.288 98.1691 121.679 97.6498C121.071 97.1305 120.81 96.265 120.81 95.0101V92.1541Z" fill="#231F20"/>
<path d="M129.762 90.8559C129.675 90.7694 129.675 90.4664 129.806 90.4664C130.197 90.5097 130.718 90.5097 131.283 90.5097C131.674 90.5097 132.022 90.5097 132.413 90.4664C132.413 91.2021 132.804 91.8945 133.326 93.0196L134.108 94.6639C134.195 94.8803 134.63 95.6159 134.803 95.9189C134.977 95.6592 135.151 95.2698 135.455 94.5774L136.064 93.2792C136.629 92.0675 136.933 91.4617 137.193 90.4664C137.715 90.5097 138.019 90.5097 138.367 90.5097C138.758 90.5097 139.279 90.5097 139.714 90.4664C139.844 90.553 139.844 90.7694 139.757 90.8559L139.41 90.8992C138.932 90.9857 138.714 91.1155 138.714 91.7214C138.714 94.1447 138.758 95.3996 138.801 96.8709C138.845 97.3902 138.888 97.6931 139.323 97.7363L139.714 97.7796C139.801 97.8662 139.801 98.1258 139.671 98.1691C139.149 98.1258 138.628 98.1258 138.063 98.1258C137.541 98.1258 136.889 98.1258 136.324 98.1691C136.194 98.1258 136.151 97.8229 136.281 97.7796L136.629 97.7363C137.15 97.6498 137.15 97.52 137.15 96.8276L137.107 93.7985V92.457H137.063C136.194 94.3178 135.238 96.265 134.499 98.2556C134.456 98.2989 134.369 98.3422 134.282 98.3422C134.195 98.3422 134.065 98.2989 133.978 98.2556C133.5 96.8276 132.066 93.9283 131.414 92.4137H131.37C131.327 93.1926 131.327 93.6687 131.283 94.2745C131.283 95.0534 131.24 96.2218 131.24 96.9142C131.24 97.4767 131.327 97.6498 131.761 97.7363L132.239 97.8229C132.326 97.9094 132.326 98.1691 132.196 98.2123C131.761 98.1691 131.24 98.1691 130.805 98.1691C130.414 98.1691 129.98 98.1691 129.502 98.2123C129.328 98.1691 129.328 97.8662 129.458 97.8229L129.675 97.7796C130.284 97.6931 130.327 97.6065 130.414 96.8709C130.458 96.3083 130.501 95.2698 130.588 94.1879C130.631 93.409 130.675 92.457 130.675 91.8079C130.675 91.1588 130.414 90.9857 129.936 90.8992L129.762 90.8559Z" fill="#231F20"/>
<path d="M141.539 90.8559C141.452 90.7694 141.452 90.4664 141.582 90.4664C141.973 90.5097 142.495 90.5097 143.06 90.5097C143.451 90.5097 143.798 90.5097 144.19 90.4664C144.19 91.2021 144.581 91.8945 145.102 93.0196L145.884 94.6639C145.971 94.8803 146.406 95.6159 146.58 95.9189C146.754 95.6592 146.927 95.2698 147.232 94.5774L147.84 93.2792C148.405 92.0675 148.709 91.4617 148.97 90.4664C149.491 90.5097 149.796 90.5097 150.143 90.5097C150.534 90.5097 151.056 90.5097 151.49 90.4664C151.621 90.553 151.621 90.7694 151.534 90.8559L151.186 90.8992C150.708 90.9857 150.491 91.1155 150.491 91.7214C150.491 94.1447 150.534 95.3996 150.578 96.8709C150.621 97.3902 150.665 97.6931 151.099 97.7363L151.49 97.7796C151.577 97.8662 151.577 98.1258 151.447 98.1691C150.925 98.1258 150.404 98.1258 149.839 98.1258C149.318 98.1258 148.666 98.1258 148.101 98.1691C147.97 98.1258 147.927 97.8229 148.057 97.7796L148.405 97.7363C148.926 97.6498 148.926 97.52 148.926 96.8276L148.883 93.7985V92.457H148.839C147.97 94.3178 147.014 96.265 146.276 98.2556C146.232 98.2989 146.145 98.3422 146.058 98.3422C145.971 98.3422 145.841 98.2989 145.754 98.2556C145.276 96.8276 143.842 93.9283 143.19 92.4137H143.147C143.103 93.1926 143.103 93.6687 143.06 94.2745C143.06 95.0534 143.016 96.2218 143.016 96.9142C143.016 97.4767 143.103 97.6498 143.538 97.7363L144.016 97.8229C144.103 97.9094 144.103 98.1691 143.972 98.2123C143.538 98.1691 143.016 98.1691 142.582 98.1691C142.191 98.1691 141.756 98.1691 141.278 98.2123C141.104 98.1691 141.104 97.8662 141.235 97.8229L141.452 97.7796C142.06 97.6931 142.104 97.6065 142.191 96.8709C142.234 96.3083 142.277 95.2698 142.364 94.1879C142.408 93.409 142.451 92.457 142.451 91.8079C142.451 91.1588 142.191 90.9857 141.713 90.8992L141.539 90.8559Z" fill="#231F20"/>
<path d="M159.313 95.5294C159.052 95.5294 159.009 95.5294 158.922 95.7458L158.444 97.0872C158.357 97.3036 158.357 97.4334 158.357 97.52C158.357 97.6065 158.531 97.6498 158.835 97.7363L159.183 97.7796C159.27 97.8662 159.27 98.1258 159.139 98.1691C158.748 98.1258 158.313 98.1258 157.835 98.1258C157.444 98.1258 157.184 98.1691 156.619 98.1691C156.488 98.0825 156.488 97.8662 156.575 97.7796L156.879 97.7363C157.14 97.6931 157.401 97.6065 157.575 97.1738C157.792 96.6978 158.009 96.1352 158.313 95.313L159.4 92.457C159.661 91.7214 159.878 91.3319 159.834 90.9857C160.399 90.8559 160.834 90.2933 160.834 90.2933C161.008 90.2933 161.051 90.3366 161.095 90.5097C161.182 90.8559 161.312 91.2886 161.616 92.1108L163.224 96.6978C163.485 97.3902 163.572 97.6498 164.006 97.7363L164.441 97.8229C164.528 97.8661 164.528 98.1691 164.441 98.2123C163.876 98.1691 163.224 98.1691 162.616 98.1691C162.051 98.1691 161.573 98.1691 161.051 98.2123C160.921 98.1258 160.877 97.9094 161.008 97.8229L161.399 97.7796C161.66 97.7363 161.703 97.6498 161.703 97.5632C161.703 97.4767 161.616 97.2171 161.486 96.7843L161.182 95.789C161.138 95.6159 161.008 95.5727 160.617 95.5727H159.313V95.5294ZM160.66 94.9236C160.921 94.9236 161.008 94.8803 160.877 94.5774L160.573 93.6254C160.399 93.1061 160.182 92.5003 160.095 92.2406C160.008 92.5003 159.748 93.1494 159.574 93.6687L159.27 94.5341C159.183 94.837 159.226 94.8803 159.53 94.8803H160.66V94.9236Z" fill="#231F20"/>
<path d="M168.395 96.265C168.395 96.8276 168.439 97.1738 168.613 97.3901C168.787 97.6065 168.96 97.6931 169.83 97.6931C170.916 97.6931 171.22 97.6498 171.916 96.3083C172.002 96.1785 172.263 96.2218 172.35 96.3949C172.307 97.0007 172.002 97.9527 171.829 98.2989C171.22 98.2556 170.09 98.2556 169.134 98.2556H167.57C167.048 98.2556 166.44 98.2556 165.701 98.2989C165.614 98.2123 165.571 97.9527 165.658 97.9094L166.092 97.8661C166.614 97.7796 166.701 97.6931 166.701 96.6112V92.2839C166.701 91.2021 166.614 91.0723 166.092 91.029L165.745 90.9857C165.614 90.8992 165.614 90.6395 165.788 90.5963C166.396 90.6395 167.005 90.6395 167.526 90.6395C168.048 90.6395 168.656 90.6395 169.265 90.5963C169.352 90.6828 169.352 90.9424 169.265 90.9857L168.96 91.029C168.439 91.1155 168.352 91.2021 168.352 92.2839V96.265H168.395Z" fill="#231F20"/>
<path d="M181.824 94.3178C181.824 96.2218 180.868 97.52 179.39 98.0825C179.303 98.1258 179.347 98.2123 179.477 98.3422C180.216 99.0345 181.128 99.7702 182.041 100.03C182.389 100.116 182.736 100.116 182.91 100.116C183.084 100.116 183.258 100.073 183.432 100.03C183.518 100.073 183.562 100.203 183.518 100.289C183.084 100.592 182.432 100.722 181.824 100.722C180.129 100.722 178.695 99.8134 177.608 98.7316C177.391 98.5152 177.261 98.3422 177 98.3422C175.088 98.1691 173.523 96.6978 173.523 94.4043C173.523 92.1108 175.262 90.2933 177.695 90.2933C180.172 90.2933 181.824 91.8945 181.824 94.3178ZM175.392 94.1014C175.392 95.5294 175.914 97.8229 177.826 97.8229C179.347 97.8229 179.955 96.3083 179.955 94.4043C179.955 92.4137 179.086 90.7693 177.608 90.7693C176.174 90.8126 175.392 92.1541 175.392 94.1014Z" fill="#231F20"/>
<path d="M184.474 92.1541C184.474 91.0723 184.387 90.9857 183.866 90.8992L183.562 90.8559C183.475 90.7693 183.475 90.5097 183.605 90.4664C184.17 90.5097 184.735 90.5097 185.3 90.5097C185.865 90.5097 186.43 90.5097 186.995 90.4664C187.082 90.553 187.082 90.8126 186.995 90.8559L186.734 90.8992C186.212 90.9857 186.126 91.0723 186.126 92.1541V94.837C186.126 96.2218 186.299 97.6931 188.081 97.6931C189.602 97.6931 190.037 96.3949 190.037 94.7937V93.3657C190.037 92.4137 189.993 91.5483 189.863 91.2453C189.776 90.9857 189.515 90.9424 189.167 90.8559L188.863 90.8126C188.776 90.7261 188.776 90.4664 188.863 90.4232C189.515 90.4664 189.95 90.4664 190.428 90.4664C190.862 90.4664 191.297 90.4664 191.731 90.4232C191.818 90.5097 191.818 90.7261 191.731 90.8126L191.514 90.8559C191.21 90.9424 190.993 90.9857 190.862 91.2453C190.732 91.5483 190.688 92.457 190.688 93.3657V94.6639C190.688 95.7458 190.602 96.7843 189.95 97.4767C189.428 98.0392 188.559 98.2989 187.646 98.2989C186.734 98.2989 185.952 98.1691 185.343 97.6498C184.735 97.1305 184.474 96.265 184.474 95.0101V92.1541Z" fill="#231F20"/>
<path d="M204.507 90.9424C204.247 90.9857 204.073 91.1155 203.986 91.2021C203.855 91.3752 203.638 91.7646 203.334 92.5003C202.769 93.885 201.465 96.7843 200.9 98.2989C200.813 98.3422 200.683 98.3854 200.509 98.3854C200.379 98.3854 200.292 98.3422 200.205 98.2989C200.075 98.0392 199.901 97.6065 199.77 97.2603L199.292 96.1352C199.119 95.7458 198.988 95.3996 198.858 95.2265C198.771 95.4429 198.597 95.7025 198.467 96.0487L197.945 97.1738C197.771 97.5632 197.641 97.8662 197.467 98.2556C197.424 98.2989 197.25 98.3422 197.076 98.3422C196.946 98.3422 196.859 98.2989 196.772 98.2556C196.598 97.7796 196.12 96.6978 195.729 95.8323L193.817 91.7214C193.513 91.029 193.426 90.9857 193.035 90.8992L192.73 90.8559C192.644 90.7261 192.644 90.5097 192.774 90.4664C193.209 90.5097 193.687 90.5097 194.295 90.5097C194.816 90.5097 195.251 90.5097 195.729 90.4664C195.816 90.5097 195.859 90.8126 195.772 90.8559L195.555 90.8992C195.338 90.9424 195.251 90.9857 195.251 91.0723C195.251 91.1588 195.512 91.7214 195.859 92.5003L197.033 95.0967C197.38 95.8323 197.554 96.1352 197.685 96.4381C197.815 96.2218 198.076 95.6592 198.293 95.2265L198.467 94.8803C198.554 94.7072 198.597 94.5341 198.597 94.4908C198.597 94.4476 198.51 94.1879 198.467 94.0581L197.337 91.5915C197.076 91.029 196.989 90.9424 196.555 90.8992H196.424C196.294 90.8126 196.337 90.553 196.468 90.5097C196.989 90.553 197.424 90.553 197.945 90.553C198.554 90.553 198.988 90.553 199.292 90.5097C199.423 90.553 199.423 90.8559 199.336 90.8992L199.119 90.9424C198.988 90.9857 198.814 91.029 198.814 91.1155C198.814 91.2021 198.858 91.3319 198.901 91.4617L199.249 92.2839C199.336 92.5436 199.51 92.8465 199.597 93.0628L199.944 92.2839L200.031 92.0675C200.249 91.6348 200.379 91.2886 200.379 91.2021C200.379 91.1155 200.335 91.0723 200.162 91.029L199.727 90.9424C199.64 90.8559 199.64 90.5963 199.77 90.553C200.118 90.5963 200.553 90.5963 200.9 90.5963C201.378 90.5963 201.813 90.5963 202.117 90.553C202.204 90.5963 202.248 90.8992 202.117 90.9857L201.77 91.0723C201.378 91.1588 201.291 91.1588 200.857 91.8512C200.596 92.3272 200.292 92.933 200.118 93.2359C200.031 93.4523 199.857 93.7985 199.857 93.8418C199.857 93.885 199.857 93.9283 199.944 94.1447L200.509 95.313C200.813 95.9621 200.987 96.3083 201.031 96.4814C201.596 95.14 202.248 93.6254 202.812 92.1974C202.899 91.981 203.117 91.3752 203.117 91.2454C203.117 91.1155 202.943 91.0723 202.769 91.029L202.508 90.9424C202.421 90.8559 202.421 90.5963 202.552 90.553C202.943 90.5963 203.421 90.5963 203.769 90.5963C204.16 90.5963 204.507 90.5963 204.855 90.553C204.942 90.5963 204.985 90.8559 204.898 90.9424H204.507Z" fill="#231F20"/>
<path d="M206.463 95.5294C206.203 95.5294 206.159 95.5294 206.072 95.7458L205.594 97.0872C205.507 97.3036 205.507 97.4334 205.507 97.52C205.507 97.6065 205.681 97.6498 205.985 97.7363L206.333 97.7796C206.42 97.8662 206.42 98.1258 206.29 98.1691C205.898 98.1258 205.464 98.1258 204.986 98.1258C204.595 98.1258 204.334 98.1691 203.769 98.1691C203.639 98.0825 203.639 97.8662 203.726 97.7796L204.03 97.7363C204.291 97.6931 204.551 97.6065 204.725 97.1738C204.942 96.6978 205.16 96.1352 205.464 95.313L206.55 92.457C206.811 91.7214 207.028 91.3319 206.985 90.9857C207.55 90.8559 207.984 90.2933 207.984 90.2933C208.158 90.2933 208.202 90.3366 208.245 90.5097C208.332 90.8559 208.462 91.2886 208.767 92.1108L210.375 96.6978C210.635 97.3902 210.722 97.6498 211.157 97.7363L211.591 97.8229C211.678 97.8661 211.678 98.1691 211.591 98.2123C211.026 98.1691 210.374 98.1691 209.766 98.1691C209.201 98.1691 208.723 98.1691 208.202 98.2123C208.071 98.1258 208.028 97.9094 208.158 97.8229L208.549 97.7796C208.81 97.7363 208.854 97.6498 208.854 97.5632C208.854 97.4767 208.767 97.2171 208.636 96.7843L208.332 95.789C208.289 95.6159 208.158 95.5727 207.767 95.5727H206.463V95.5294ZM207.811 94.9236C208.071 94.9236 208.158 94.8803 208.028 94.5774L207.724 93.6254C207.55 93.1061 207.333 92.5003 207.246 92.2406C207.159 92.5003 206.898 93.1494 206.724 93.6687L206.42 94.5341C206.333 94.837 206.376 94.8803 206.681 94.8803H207.811V94.9236Z" fill="#231F20"/>
<path d="M215.546 96.4814C215.546 97.5632 215.633 97.6498 216.155 97.7363L216.502 97.7796C216.589 97.8662 216.589 98.1258 216.502 98.1691C215.85 98.1258 215.285 98.1258 214.764 98.1258C214.199 98.1258 213.634 98.1258 212.982 98.1691C212.895 98.0825 212.895 97.8229 212.982 97.7796L213.33 97.7363C213.851 97.6498 213.938 97.5632 213.938 96.4814V92.1974C213.938 91.1155 213.851 91.029 213.33 90.9424L212.982 90.8992C212.895 90.8126 212.895 90.553 212.982 90.5097C213.634 90.553 214.199 90.553 214.764 90.553C215.329 90.553 215.894 90.553 216.546 90.5097C216.633 90.5963 216.633 90.8559 216.546 90.8992L216.198 90.9424C215.677 91.029 215.59 91.1155 215.59 92.1974L215.546 96.4814Z" fill="#231F20"/>
<path d="M225.671 96.1785C225.671 96.9574 225.671 97.6931 225.714 98.0392C225.627 98.1691 225.323 98.2989 225.019 98.2989C225.019 98.2989 224.628 97.6931 224.063 97.044L221.369 93.7119C220.673 92.8897 220.282 92.4137 220.108 92.1974C220.065 92.3272 220.065 92.5003 220.065 92.933V95.1832C220.065 96.1352 220.108 97.0007 220.239 97.3036C220.326 97.5632 220.63 97.6498 220.934 97.6931L221.282 97.7363C221.369 97.8229 221.369 98.0825 221.282 98.1258C220.63 98.0825 220.195 98.0825 219.717 98.0825C219.283 98.0825 218.848 98.0825 218.414 98.1258C218.327 98.0393 218.327 97.8229 218.414 97.7363L218.631 97.6931C218.935 97.6498 219.196 97.5632 219.283 97.3036C219.413 97.0007 219.457 96.092 219.457 95.1832V92.2839C219.457 91.6348 219.457 91.4617 219.37 91.2886C219.283 91.0723 219.109 90.9424 218.718 90.8992L218.37 90.8559C218.283 90.7694 218.283 90.4664 218.414 90.4664C218.979 90.5097 219.543 90.5097 220.022 90.5097C220.413 90.5097 220.76 90.5097 221.021 90.4664C221.151 90.9857 221.89 91.8945 222.977 93.1494L223.976 94.3178C224.498 94.9236 224.845 95.313 225.106 95.616C225.149 95.4861 225.149 95.313 225.149 95.0967V93.4956C225.149 92.5435 225.106 91.6781 224.976 91.3752C224.889 91.1155 224.628 91.029 224.28 90.9857L223.976 90.9424C223.889 90.8559 223.889 90.5963 223.976 90.553C224.628 90.5963 225.062 90.5963 225.541 90.5963C225.975 90.5963 226.41 90.5963 226.844 90.553C226.931 90.6395 226.931 90.8559 226.844 90.9424L226.627 90.9857C226.323 91.029 226.105 91.1155 225.975 91.3752C225.845 91.6781 225.801 92.5868 225.801 93.4956V96.1785H225.671Z" fill="#231F20"/>
<path d="M225.844 83.8023H0.216797V84.6678H225.844V83.8023Z" fill="#CF1F25"/>
</svg>
