<svg width="29" height="28" viewBox="0 0 29 28" fill="none" xmlns="http://www.w3.org/2000/svg">
<path d="M4.88264 6.63803L5.77365 7.09202L4.88264 6.63803ZM8.69962 22.5336L9.25431 23.3656L9.25432 23.3656L8.69962 22.5336ZM20.362 17.0136L20.816 17.9046L20.362 17.0136ZM21.673 15.7026L20.782 15.2486L20.782 15.2486L21.673 15.7026ZM21.673 6.63803L20.782 7.09202L20.782 7.09202L21.673 6.63803ZM20.362 5.32698L19.908 6.21799L19.908 6.21799L20.362 5.32698ZM6.19369 5.32698L6.64768 6.21799L6.19369 5.32698ZM5.55566 9.8C5.55566 8.94342 5.55644 8.36113 5.59322 7.91104C5.62904 7.47262 5.69396 7.24842 5.77365 7.09202L3.99164 6.18404C3.74435 6.66937 3.64578 7.18608 3.59986 7.74818C3.55489 8.2986 3.55566 8.97643 3.55566 9.8H5.55566ZM5.55566 16.3406V9.8H3.55566V16.3406H5.55566ZM7 16.3406H5.55566V18.3406H7V16.3406ZM7 18.3406V19H9V18.3406H7ZM7 19V22.1592H9V19H7ZM7 22.1592C7 23.3173 8.29071 24.008 9.25431 23.3656L8.14492 21.7015C8.51042 21.4579 9 21.7199 9 22.1592H7ZM9.25432 23.3656L14.1094 20.1289L13 18.4648L8.14491 21.7015L9.25432 23.3656ZM15 18.4648V18.3406H13V18.4648H15ZM17.2 16.3406H15V18.3406H17.2V16.3406ZM19.908 16.1226C19.7516 16.2023 19.5274 16.2672 19.089 16.303C18.6389 16.3398 18.0566 16.3406 17.2 16.3406V18.3406C18.0236 18.3406 18.7014 18.3414 19.2518 18.2964C19.8139 18.2505 20.3306 18.1519 20.816 17.9046L19.908 16.1226ZM20.782 15.2486C20.5903 15.6249 20.2843 15.9309 19.908 16.1226L20.816 17.9046C21.5686 17.5211 22.1805 16.9092 22.564 16.1565L20.782 15.2486ZM21 12.5406C21 13.3972 20.9992 13.9795 20.9624 14.4296C20.9266 14.868 20.8617 15.0922 20.782 15.2486L22.564 16.1566C22.8113 15.6712 22.9099 15.1545 22.9558 14.5924C23.0008 14.042 23 13.3642 23 12.5406H21ZM21 9.8V12.5406H23V9.8H21ZM20.782 7.09202C20.8617 7.24842 20.9266 7.47262 20.9624 7.91104C20.9992 8.36113 21 8.94342 21 9.8H23C23 8.97642 23.0008 8.2986 22.9558 7.74817C22.9099 7.18608 22.8113 6.66937 22.564 6.18404L20.782 7.09202ZM19.908 6.21799C20.2843 6.40973 20.5903 6.7157 20.782 7.09202L22.564 6.18404C22.1805 5.43139 21.5686 4.81947 20.816 4.43597L19.908 6.21799ZM17.2 6C18.0566 6 18.6389 6.00078 19.089 6.03755C19.5274 6.07337 19.7516 6.1383 19.908 6.21799L20.816 4.43597C20.3306 4.18868 19.8139 4.09012 19.2518 4.04419C18.7014 3.99922 18.0236 4 17.2 4V6ZM9.35566 6H17.2V4H9.35566V6ZM6.64768 6.21799C6.80408 6.1383 7.02829 6.07337 7.4667 6.03755C7.91679 6.00078 8.49908 6 9.35566 6V4C8.53209 4 7.85426 3.99922 7.30384 4.04419C6.74174 4.09012 6.22504 4.18868 5.7397 4.43597L6.64768 6.21799ZM5.77365 7.09202C5.9654 6.71569 6.27136 6.40973 6.64768 6.21799L5.7397 4.43597C4.98705 4.81947 4.37513 5.43139 3.99164 6.18404L5.77365 7.09202ZM15 18.3406L15 18.3406V16.3406C13.8954 16.3406 13 17.236 13 18.3406H15ZM7 18.3406H9C9 17.236 8.10457 16.3406 7 16.3406V18.3406ZM14.1094 20.1289C14.6658 19.758 15 19.1335 15 18.4648H13L14.1094 20.1289ZM3.55566 16.3406C3.55566 17.4452 4.45109 18.3406 5.55566 18.3406V16.3406H3.55566Z" fill="#446FF2"/>
<path d="M8.74121 9.33325L17.9264 9.33325" stroke="#446FF2" stroke-width="2" stroke-linecap="round" stroke-linejoin="round"/>
<path d="M9 13L14 13" stroke="#446FF2" stroke-width="2" stroke-linecap="round" stroke-linejoin="round"/>
</svg>
