<svg width="39" height="49" viewBox="0 0 39 49" fill="none" xmlns="http://www.w3.org/2000/svg">
<path d="M16.3133 42.0128H5.02215C3.84454 42.0128 2.90938 41.043 2.90938 39.9001V4.98751C2.90938 3.8099 3.87918 2.87474 5.02215 2.87474H21.4047V8.55496C21.4047 11.3258 23.656 13.5425 26.3922 13.5425H32.0725V25.9073C32.0725 26.7039 32.7305 27.3274 33.4925 27.3274C34.2891 27.3274 34.9126 26.6693 34.9126 25.9073V12.1224C34.9126 12.1224 34.9126 12.1224 34.9126 12.0878C34.9126 12.0531 34.9126 12.0185 34.9126 11.9839V11.9492C34.9126 11.9146 34.9126 11.88 34.8779 11.8107V11.7761C34.8779 11.7414 34.8779 11.7068 34.8433 11.7068C34.8433 11.6722 34.8433 11.6721 34.8433 11.6721C34.8433 11.6375 34.8433 11.6375 34.8087 11.6029C34.8087 11.6029 34.8087 11.5682 34.774 11.5682C34.774 11.5336 34.7394 11.499 34.7394 11.4643C34.7394 11.4643 34.7394 11.4297 34.7048 11.4297C34.7048 11.3951 34.6701 11.3951 34.6701 11.3604L34.6355 11.3258C34.6355 11.2912 34.6008 11.2912 34.6008 11.2565C34.6008 11.2565 34.6008 11.2219 34.5662 11.2219C34.5316 11.1873 34.5316 11.1526 34.4969 11.1526L23.7946 0.450257C23.7599 0.415622 23.7253 0.380992 23.6907 0.380992C23.6907 0.380992 23.656 0.38099 23.656 0.346355C23.6214 0.311719 23.6214 0.311715 23.5868 0.27708C23.5868 0.27708 23.5521 0.277077 23.5521 0.242442C23.5175 0.242442 23.5175 0.207815 23.4829 0.207815C23.4829 0.207815 23.4482 0.207813 23.4482 0.173177C23.4136 0.138542 23.3789 0.13854 23.3443 0.13854C23.3443 0.13854 23.3097 0.138538 23.3097 0.103902C23.275 0.103902 23.275 0.0692646 23.2404 0.0692646H23.2058C23.1711 0.0692646 23.1365 0.0692731 23.1365 0.0346376H23.1019C23.0672 0.0346376 23.0326 0.0346355 22.9633 0H22.9287C22.8941 0 22.8594 0 22.8248 0C22.8248 0 22.8248 0 22.7901 0H4.98751C2.21667 0 0 2.2513 0 4.98751V39.9001C0 42.6709 2.25131 44.8876 4.98751 44.8876H16.2787C17.0753 44.8876 17.6987 44.2295 17.6987 43.4675C17.6987 42.7055 17.1099 42.0128 16.3133 42.0128ZM26.4269 10.6677C25.2493 10.6677 24.3141 9.69793 24.3141 8.55496V4.8836L30.0982 10.6677H26.4269Z" fill="#FBA243"/>
<path d="M27.8468 18.5302C27.8468 17.7335 27.1888 17.1101 26.4268 17.1101H8.62416C7.82754 17.1101 7.2041 17.7682 7.2041 18.5302C7.2041 19.2921 7.86218 19.9502 8.62416 19.9502H26.4268C27.2234 19.9502 27.8468 19.3268 27.8468 18.5302Z" fill="#FBA243"/>
<path d="M24.4526 25.6303C24.4526 24.8336 23.7945 24.2102 23.0325 24.2102H8.62416C7.82754 24.2102 7.2041 24.8683 7.2041 25.6303C7.2041 26.3922 7.86218 27.0503 8.62416 27.0503H22.9979C23.7945 27.085 24.4526 26.4269 24.4526 25.6303Z" fill="#FBA243"/>
<path d="M8.62416 31.345C7.82754 31.345 7.2041 32.003 7.2041 32.765C7.2041 33.527 7.86218 34.1851 8.62416 34.1851H16.2786C17.0752 34.1851 17.6987 33.527 17.6987 32.765C17.6987 32.003 17.0406 31.345 16.2786 31.345H8.62416Z" fill="#FBA243"/>
<path d="M28.2271 28.7822C22.7893 28.7822 18.3906 33.1809 18.3906 38.6187C18.3906 44.0565 22.7893 48.4552 28.2271 48.4552C33.6649 48.4552 38.0636 44.0565 38.0636 38.6187C38.0982 33.2156 33.6649 28.7822 28.2271 28.7822ZM28.2271 45.6151C24.3826 45.6151 21.2654 42.4979 21.2654 38.6533C21.2654 34.8088 24.3826 31.6916 28.2271 31.6916C32.0716 31.6916 35.1888 34.8088 35.1888 38.6533C35.1888 42.4979 32.0716 45.6151 28.2271 45.6151Z" fill="#FBA243"/>
<path d="M24.4527 37.0254H23.8292C23.0326 37.0254 22.4092 37.6835 22.4092 38.4454C22.4092 39.2074 23.0673 39.8655 23.8292 39.8655H24.4527C25.2493 39.8655 25.8727 39.2074 25.8727 38.4454C25.8727 37.6835 25.2147 37.0254 24.4527 37.0254Z" fill="#FBA243"/>
<path d="M28.6783 37.0254H28.0548C27.2582 37.0254 26.6348 37.6835 26.6348 38.4454C26.6348 39.2074 27.2928 39.8655 28.0548 39.8655H28.6783C29.4749 39.8655 30.0983 39.2074 30.0983 38.4454C30.0983 37.6835 29.4749 37.0254 28.6783 37.0254Z" fill="#FBA243"/>
<path d="M33.146 37.0254H32.5226C31.726 37.0254 31.1025 37.6835 31.1025 38.4454C31.1025 39.2074 31.7606 39.8655 32.5226 39.8655H33.146C33.9427 39.8655 34.5661 39.2074 34.5661 38.4454C34.5661 37.6835 33.908 37.0254 33.146 37.0254Z" fill="#FBA243"/>
</svg>
