<svg width="31" height="36" viewBox="0 0 31 36" fill="none" xmlns="http://www.w3.org/2000/svg">
<path d="M30.3775 25.5234C30.7925 25.9453 31 26.5078 31 27C30.9308 28.1953 30.1008 29.25 28.7175 29.25H2.22646C0.843113 29.25 0.0131072 28.1953 0.0131072 27C-0.05606 26.5078 0.151442 25.9453 0.566445 25.5234C1.88062 24.0469 4.43981 21.8672 4.43981 14.625C4.43981 9.21094 8.17483 4.85156 13.2932 3.72656V2.25C13.2932 1.05469 14.2615 0 15.5066 0C16.6824 0 17.6507 1.05469 17.6507 2.25V3.72656C22.7691 4.85156 26.5041 9.21094 26.5041 14.625C26.5041 21.8672 29.0633 24.0469 30.3775 25.5234ZM4.64731 25.875H26.2966C24.8441 23.9766 23.2533 20.6719 23.1841 14.6953C23.1841 14.6953 23.2533 14.6953 23.2533 14.625C23.2533 10.3359 19.7258 6.75 15.5066 6.75C11.2182 6.75 7.75983 10.3359 7.75983 14.625C7.75983 14.6953 7.75983 14.6953 7.75983 14.6953C7.69066 20.6719 6.09982 23.9766 4.64731 25.875ZM15.5066 36C13.0165 36 11.0799 34.0312 11.0799 31.5H19.8641C19.8641 34.0312 17.9274 36 15.5066 36Z" fill="#A9B9C6"/>
</svg>
