<svg width="41" height="48" viewBox="0 0 41 48" fill="none" xmlns="http://www.w3.org/2000/svg">
<path d="M29.1669 20.5667V20.5301C29.1669 20.4935 29.1669 20.4569 29.1303 20.3837V20.3471C29.1303 20.3105 29.1303 20.274 29.0937 20.274V20.2374C29.0937 20.2008 29.0937 20.2008 29.0571 20.1642C29.0571 20.1642 29.0571 20.1276 29.0205 20.1276C29.0205 20.091 28.9839 20.0544 28.9839 20.0178C28.9839 20.0178 28.9839 19.9812 28.9473 19.9812C28.9473 19.9446 28.9107 19.9446 28.9107 19.908C28.9107 19.908 28.9107 19.8714 28.8741 19.8714C28.8741 19.8348 28.8375 19.8348 28.8375 19.7982C28.8375 19.7982 28.8375 19.7616 28.8009 19.7616C28.7643 19.725 28.7277 19.6884 28.7277 19.6518L20.0179 10.9054C19.9813 10.8688 19.9447 10.8322 19.9081 10.8322C19.9081 10.8322 19.8715 10.8322 19.8715 10.7956C19.8349 10.759 19.8349 10.759 19.7983 10.7224C19.7983 10.7224 19.7617 10.7224 19.7617 10.6859C19.7251 10.6859 19.7251 10.6493 19.6885 10.6493C19.6885 10.6493 19.6519 10.6493 19.6519 10.6127C19.6153 10.5761 19.5788 10.5761 19.5422 10.5761C19.5422 10.5761 19.5056 10.5761 19.5056 10.5395C19.469 10.5395 19.469 10.5029 19.4324 10.5029H19.3958C19.3592 10.5029 19.3226 10.5029 19.3226 10.4663H19.286C19.2494 10.4663 19.2128 10.4663 19.1396 10.4297H19.103C19.0664 10.4297 19.0298 10.4297 18.9932 10.4297C18.9932 10.4297 18.9932 10.4297 18.9566 10.4297H4.42809C1.97618 10.4297 0 12.4059 0 14.8578V43.3293C0 45.7812 1.97618 47.7574 4.42809 47.7574H16.1022H24.3728C27.0443 47.7574 29.2034 45.5617 29.2034 42.9268V20.7131C29.2034 20.7131 29.2034 20.7131 29.2034 20.6765C29.1669 20.6033 29.1669 20.5667 29.1669 20.5667ZM20.4571 15.6263L24.0069 19.1761H21.8477C21.0792 19.1761 20.4571 18.5539 20.4571 17.7854V15.6263ZM24.3362 44.7199H16.0656H4.3915C3.62298 44.7199 3.00085 44.0978 3.00085 43.3293V14.8578C3.00085 14.0893 3.62298 13.4671 4.3915 13.4671H17.383V17.7488C17.383 20.2008 19.3592 22.1769 21.8111 22.1769H26.1294V42.8902C26.1294 43.9148 25.3243 44.7199 24.3362 44.7199Z" fill="#48C741"/>
<path d="M21.8483 24.4094H7.31977C6.47806 24.4094 5.81934 25.1047 5.81934 25.9099C5.81934 26.7516 6.51466 27.4103 7.31977 27.4103H21.8483C22.69 27.4103 23.3487 26.715 23.3487 25.9099C23.3487 25.0682 22.69 24.4094 21.8483 24.4094Z" fill="#48C741"/>
<path d="M21.8483 30.1917H7.31977C6.47806 30.1917 5.81934 30.887 5.81934 31.6921C5.81934 32.4972 6.51466 33.1925 7.31977 33.1925H21.8483C22.69 33.1925 23.3487 32.4972 23.3487 31.6921C23.3487 30.887 22.69 30.1917 21.8483 30.1917Z" fill="#48C741"/>
<path d="M13.5777 36.0103H7.31977C6.47806 36.0103 5.81934 36.7056 5.81934 37.5107C5.81934 38.3524 6.51466 39.0111 7.31977 39.0111H13.5777C14.4194 39.0111 15.0781 38.3158 15.0781 37.5107C15.0781 36.7056 14.4194 36.0103 13.5777 36.0103Z" fill="#48C741"/>
<path d="M31.5455 8.23404C29.5694 6.33106 27.0077 5.26978 24.263 5.26978H9.91742C9.07572 5.26978 8.41699 5.9651 8.41699 6.77021C8.41699 7.57531 9.11231 8.27062 9.91742 8.27062H24.263C26.2025 8.27062 28.0323 9.00255 29.423 10.3932C30.8136 11.7472 31.5821 13.577 31.6553 15.5166V37.7302C31.6553 38.572 32.3507 39.2307 33.1558 39.2307C33.9609 39.2307 34.6562 38.5354 34.6562 37.7302V15.5166V15.48C34.583 12.6987 33.4851 10.137 31.5455 8.23404Z" fill="#48C741"/>
<path d="M40.4013 13.1013L40.3281 7.31916C40.2915 5.34299 39.4864 3.51319 38.0958 2.12255C36.7051 0.731912 34.8387 0 32.8626 0H15.6625C14.8208 0 14.1621 0.695311 14.1621 1.50042C14.1621 2.30553 14.8574 3.00085 15.6625 3.00085H32.8626C34.0336 3.00085 35.1315 3.44 35.9732 4.2817C36.8149 5.08681 37.2907 6.18468 37.2907 7.35575L37.3639 13.1379V32.4239C37.3639 33.2656 38.0592 33.9243 38.8643 33.9243C39.6694 33.9243 40.3647 33.229 40.3647 32.4239L40.4013 13.1013Z" fill="#48C741"/>
</svg>
