<svg width="38" height="48" viewBox="0 0 38 48" fill="none" xmlns="http://www.w3.org/2000/svg">
<path d="M15.9257 41.0146H4.90281C3.75319 41.0146 2.84026 40.0678 2.84026 38.952V4.869C2.84026 3.71938 3.787 2.80644 4.90281 2.80644H20.8961V8.35169C20.8961 11.0567 23.094 13.2207 25.7651 13.2207H31.3104V25.2918C31.3104 26.0694 31.9528 26.6781 32.6967 26.6781C33.4744 26.6781 34.083 26.0356 34.083 25.2918V11.8344C34.083 11.8344 34.083 11.8344 34.083 11.8006C34.083 11.7668 34.083 11.7329 34.083 11.6991V11.6653C34.083 11.6315 34.083 11.5977 34.0492 11.5301V11.4963C34.0492 11.4624 34.0492 11.4286 34.0154 11.4286C34.0154 11.3948 34.0154 11.3948 34.0154 11.3948C34.0154 11.361 34.0154 11.361 33.9816 11.3272C33.9816 11.3272 33.9816 11.2934 33.9478 11.2934C33.9478 11.2596 33.914 11.2258 33.914 11.1919C33.914 11.1919 33.914 11.1581 33.8801 11.1581C33.8801 11.1243 33.8463 11.1243 33.8463 11.0905C33.8463 11.0905 33.8463 11.0567 33.8125 11.0567C33.8125 11.0229 33.7787 11.0229 33.7787 10.9891C33.7787 10.9891 33.7787 10.9553 33.7449 10.9553C33.7111 10.9214 33.7111 10.8876 33.6773 10.8876L23.2292 0.439564C23.1954 0.405751 23.1616 0.371937 23.1278 0.371937C23.1278 0.371937 23.094 0.371938 23.094 0.338125C23.0601 0.304313 23.0601 0.304314 23.0263 0.270501C23.0263 0.270501 22.9925 0.270502 22.9925 0.236689C22.9587 0.236689 22.9587 0.202875 22.9249 0.202875C22.9249 0.202875 22.8911 0.202875 22.8911 0.169063C22.8573 0.13525 22.8235 0.135251 22.7896 0.135251C22.7896 0.135251 22.7558 0.135251 22.7558 0.101439C22.722 0.101439 22.722 0.0676266 22.6882 0.0676266H22.6544C22.6206 0.0676266 22.5868 0.0676245 22.5868 0.033812H22.553C22.5191 0.033812 22.4853 0.0338125 22.4177 0H22.3839C22.3501 0 22.3163 0 22.2825 0C22.2825 0 22.2825 0 22.2486 0H4.86901C2.16401 0 0 2.19781 0 4.869V38.952C0 41.657 2.19782 43.821 4.86901 43.821H15.8919C16.6696 43.821 17.2782 43.1786 17.2782 42.4347C17.312 41.657 16.6696 41.0146 15.9257 41.0146ZM25.7651 10.4143C24.6155 10.4143 23.7026 9.46751 23.7026 8.35169V4.76756L29.3493 10.4143H25.7651Z" fill="#446FF2"/>
<path d="M27.1855 18.0897C27.1855 17.312 26.543 16.7034 25.7991 16.7034H8.41952C7.64183 16.7034 7.0332 17.3458 7.0332 18.0897C7.0332 18.8674 7.67564 19.476 8.41952 19.476H25.7653C26.543 19.476 27.1855 18.8674 27.1855 18.0897Z" fill="#446FF2"/>
<path d="M23.8377 25.055C23.8377 24.2773 23.1952 23.6687 22.4513 23.6687H8.38534C7.60765 23.6687 6.99902 24.3111 6.99902 25.055C6.99902 25.8327 7.64146 26.4413 8.38534 26.4413H22.4513C23.1952 26.4413 23.8377 25.8327 23.8377 25.055Z" fill="#446FF2"/>
<path d="M8.38534 30.6003C7.60765 30.6003 6.99902 31.2428 6.99902 31.9867C6.99902 32.7643 7.64146 33.373 8.38534 33.373H15.8579C16.6356 33.373 17.2442 32.7305 17.2442 31.9867C17.2442 31.209 16.6018 30.6003 15.8579 30.6003H8.38534Z" fill="#446FF2"/>
<path d="M27.5578 28.1318C22.2493 28.1318 17.9551 32.426 17.9551 37.7346C17.9551 43.0432 22.2493 47.3373 27.5578 47.3373C32.8664 47.3373 37.1606 43.0432 37.1606 37.7346C37.1606 32.426 32.8326 28.1318 27.5578 28.1318ZM27.5578 44.5309C23.8046 44.5309 20.7615 41.4878 20.7615 37.7346C20.7615 33.9814 23.8046 30.9383 27.5578 30.9383C31.311 30.9383 34.3541 33.9814 34.3541 37.7346C34.3541 41.4878 31.311 44.5309 27.5578 44.5309Z" fill="#446FF2"/>
<path d="M32.7979 38.9857C32.7979 38.2081 32.1893 37.5994 31.4116 37.5994H26.7116V34.3196C26.644 33.5419 26.0016 32.9671 25.1901 33.0009C24.4124 33.0686 23.9052 33.6096 23.9728 34.3872L24.0066 39.0872C24.0404 39.4929 24.2433 39.8311 24.5138 40.0677C24.7505 40.2706 25.0548 40.3721 25.3929 40.3721L31.3778 40.4059C32.1893 40.4059 32.8317 39.7296 32.7979 38.9857Z" fill="#446FF2"/>
</svg>
