<svg width="52" height="51" viewBox="0 0 52 51" fill="none" xmlns="http://www.w3.org/2000/svg">
<path fill-rule="evenodd" clip-rule="evenodd" d="M36.4 15.1637C35.0342 13.8362 33.4129 12.7831 31.6284 12.0646C29.844 11.3462 27.9315 10.9764 26 10.9764C24.0685 10.9764 22.156 11.3462 20.3716 12.0646C18.5871 12.7831 16.9658 13.8362 15.6 15.1637C14.2343 16.4913 13.1509 18.0673 12.4118 19.8019C11.6726 21.5364 11.2922 23.3955 11.2922 25.2729C11.2922 27.1503 11.6726 29.0094 12.4118 30.7439C13.1509 32.4785 14.2343 34.0545 15.6 35.3821C16.9658 36.7096 18.5871 37.7627 20.3716 38.4812C22.156 39.1996 24.0685 39.5694 26 39.5694C27.9315 39.5694 29.844 39.1996 31.6284 38.4812C33.4129 37.7627 35.0342 36.7096 36.4 35.3821C37.7657 34.0545 38.8491 32.4785 39.5882 30.7439C40.3274 29.0094 40.7078 27.1504 40.7078 25.2729C40.7078 23.3955 40.3274 21.5364 39.5882 19.8019C38.8491 18.0673 37.7657 16.4913 36.4 15.1637ZM33.0355 8.76259C35.2661 9.66067 37.2928 10.977 39 12.6365C40.7072 14.2959 42.0614 16.2659 42.9853 18.4341C43.9092 20.6023 44.3847 22.9261 44.3847 25.2729C44.3847 27.6197 43.9092 29.9435 42.9853 32.1117C42.0614 34.2799 40.7071 36.2499 39 37.9094C37.2928 39.5688 35.2661 40.8851 33.0355 41.7832C30.805 42.6813 28.4143 43.1435 26 43.1435C23.5857 43.1435 21.195 42.6813 18.9645 41.7832C16.7339 40.8851 14.7072 39.5688 13 37.9094C11.2928 36.2499 9.93864 34.2799 9.01472 32.1117C8.0908 29.9435 7.61526 27.6197 7.61526 25.2729C7.61526 22.9261 8.0908 20.6023 9.01472 18.4341C9.93864 16.2659 11.2928 14.2959 13 12.6365C14.7072 10.977 16.7339 9.66067 18.9645 8.76258C21.195 7.8645 23.5857 7.40226 26 7.40226C28.4143 7.40226 30.805 7.8645 33.0355 8.76259Z" fill="#D1DAE2"/>
<path fill-rule="evenodd" clip-rule="evenodd" d="M26 15.9039C27.0154 15.9039 27.8385 16.704 27.8385 17.6909L27.8385 32.8547C27.8385 33.8416 27.0154 34.6417 26 34.6417C24.9846 34.6417 24.1615 33.8416 24.1615 32.8547L24.1615 17.6909C24.1615 16.704 24.9846 15.9039 26 15.9039Z" fill="#D1DAE2"/>
<path fill-rule="evenodd" clip-rule="evenodd" d="M35.6379 25.2728C35.6379 24.2859 34.8148 23.4858 33.7994 23.4858L18.1995 23.4858C17.1841 23.4858 16.361 24.2859 16.361 25.2728C16.361 26.2598 17.1841 27.0599 18.1995 27.0599L33.7994 27.0599C34.8148 27.0599 35.6379 26.2598 35.6379 25.2728Z" fill="#D1DAE2"/>
</svg>
