<svg width="43" height="43" viewBox="0 0 43 43" fill="none" xmlns="http://www.w3.org/2000/svg">
<path fill-rule="evenodd" clip-rule="evenodd" d="M16.3609 8.1156C10.9836 10.1817 7.16699 15.3951 7.16699 21.5C7.16699 22.2626 7.22655 23.0113 7.34128 23.7417L19.6632 20.4401L16.3609 8.1156ZM19.2591 7.34083L22.6904 20.1466L22.702 20.19C22.752 20.3757 22.8226 20.6376 22.8535 20.8778C22.8925 21.1805 22.9017 21.6593 22.62 22.1472C22.3383 22.6351 21.9191 22.8665 21.6374 22.9841C21.414 23.0774 21.1519 23.1473 20.966 23.1968L20.966 23.1968L20.9226 23.2084L8.11616 26.6399C10.1824 32.017 15.3957 35.8333 21.5003 35.8333C29.4164 35.8333 35.8337 29.416 35.8337 21.5C35.8337 13.5839 29.4164 7.16663 21.5003 7.16663C20.7379 7.16663 19.9893 7.22616 19.2591 7.34083Z" fill="#446FF2"/>
<path d="M17.3801 6.12572C17.1315 5.19769 17.0071 4.73367 16.6079 4.53198C16.2086 4.33029 15.7936 4.49291 14.9635 4.81815C13.4011 5.43033 11.9293 6.26022 10.5927 7.28579C8.72606 8.71812 7.15981 10.5041 5.98339 12.5417C4.80696 14.5793 4.0434 16.8287 3.73629 19.1614C3.51639 20.8317 3.5336 22.5213 3.78465 24.1805C3.91803 25.062 3.98472 25.5028 4.35901 25.7477C4.73331 25.9926 5.19732 25.8682 6.12536 25.6196L19.5678 22.0177C20.4785 21.7737 20.9338 21.6517 21.141 21.2929C21.3481 20.9342 21.2261 20.4789 20.982 19.5682L17.3801 6.12572Z" fill="#446FF2"/>
</svg>
